<svg id="Layer_1" data-name="Layer 1" xmlns="http://www.w3.org/2000/svg" viewBox="0 0 1920 1080"><defs><style>.cls-1{fill:#c8c8c8;}.cls-2{fill:#ededed;}.cls-3{fill:#fff;}.cls-4{fill:#dc4844;}.cls-5{fill:#bf3a37;}.cls-6{fill:#ebebeb;}.cls-7{fill:#bababa;}.cls-8{fill:#e7e6e6;}.cls-9{font-size:198.16px;letter-spacing:0.2em;}.cls-19,.cls-9{font-family:ComicSansMS, Comic Sans MS;}.cls-10{fill:#dba27d;}.cls-11{fill:#f8c09d;}.cls-12{fill:#3e7b7d;}.cls-13{fill:#005757;}.cls-14{fill:#e7b26a;}.cls-15{fill:#2e79bd;}.cls-16{fill:#252a26;}.cls-17{fill:#fbf8ec;}.cls-18{fill:#282928;}.cls-19{font-size:60.43px;}</style></defs><title>Artboard 1</title><path class="cls-1" d="M1468.65,872.61,665.8,1009.87a81.78,81.78,0,0,1-94.11-66.63S493.07,130.3,564.75,118c0,0,843.29-83.81,855.55-12.13l115,672.59A81.79,81.79,0,0,1,1468.65,872.61Z"/><path class="cls-2" d="M1423.15,901.44l-810.8,77.63a81.78,81.78,0,0,1-88.94-73.39S505,89.16,577.4,82.22c0,0,847.18-21.34,854.11,51.05l65,679.24A81.76,81.76,0,0,1,1423.15,901.44Z"/><path class="cls-2" d="M587.1,872.32l733.27,106.75a81.77,81.77,0,0,0,88.94-73.39s18.41-816.52-54-823.46c0,0-725.22-18.52-732.16,53.87L547,756.08C542.74,800.72,542.46,868.05,587.1,872.32Z"/><path class="cls-3" d="M635.15,41h713.14a132.22,132.22,0,0,1,132.22,132.22V841.73A81.54,81.54,0,0,1,1399,923.27H584.47a81.54,81.54,0,0,1-81.54-81.54V173.23A132.22,132.22,0,0,1,635.15,41Z"/><path class="cls-4" d="M635.15,41h713.14a132.22,132.22,0,0,1,132.22,132.22v97.09a0,0,0,0,1,0,0H502.93a0,0,0,0,1,0,0V173.23A132.22,132.22,0,0,1,635.15,41Z"/><path class="cls-5" d="M662,107.73h0a20,20,0,0,1-19.89-19.89V41H681.9V87.84A20,20,0,0,1,662,107.73Z"/><path class="cls-5" d="M897.34,107.73h0a20,20,0,0,1-19.89-19.89V41h39.78V87.84A20,20,0,0,1,897.34,107.73Z"/><path class="cls-6" d="M1117.44,107.73h0a19.94,19.94,0,0,1-19.88-19.89V41h39.77V87.84A20,20,0,0,1,1117.44,107.73Z"/><path class="cls-5" d="M1339.09,107.73h0a20,20,0,0,1-19.89-19.89V41c0-3.15,39.77.43,39.77.43v46.4A20,20,0,0,1,1339.09,107.73Z"/><rect class="cls-6" x="869.61" y="10" width="39.77" height="91.03" rx="19.89" ry="19.89"/><rect class="cls-6" x="1090.81" y="10" width="39.77" height="91.03" rx="19.89" ry="19.89"/><rect class="cls-6" x="1312.02" y="10" width="39.77" height="91.03" rx="19.89" ry="19.89"/><path class="cls-7" d="M1398,677.64,1166.81,920.79s8.74-42.81,8.81-69.71c.05-17.09-3.45-32-4.62-56.53-3.3-68.84,36.56-86.37,55.38-96.56,28.86-15.63,76.19-4.07,104.73-5.92C1343.16,691.29,1389.05,689.28,1398,677.64Z"/><path class="cls-8" d="M1474.64,662.34,1166.81,920.79s15.3-49.15,18.32-80.65c1.91-20-.71-37.87.53-66.74,3.49-81,53.9-97,77.91-106.79,36.82-15,93.14,3.92,128.07,5C1406.39,672.07,1462.43,675,1474.64,662.34Z"/><rect class="cls-6" x="603.82" y="398.63" width="130.4" height="84.54"/><rect class="cls-6" x="603.82" y="549.1" width="130.4" height="84.54"/><rect class="cls-6" x="811.33" y="549.1" width="130.4" height="84.54"/><rect class="cls-6" x="1018.85" y="549.1" width="130.4" height="84.54"/><rect class="cls-6" x="1222.35" y="549.1" width="130.4" height="84.54"/><rect class="cls-6" x="603.82" y="699.57" width="130.4" height="84.54"/><rect class="cls-6" x="811.33" y="699.57" width="130.4" height="84.54"/><rect class="cls-6" x="1018.85" y="699.57" width="130.4" height="84.54"/><rect class="cls-6" x="811.33" y="398.63" width="130.4" height="84.54"/><rect class="cls-6" x="1018.85" y="398.63" width="130.4" height="84.54"/><rect class="cls-6" x="1226.36" y="398.63" width="130.4" height="84.54"/><rect class="cls-6" x="634.24" y="10" width="39.77" height="91.03" rx="19.89" ry="19.89"/><text class="cls-9" transform="translate(636.13 245.66) scale(1.1 0.79)">IPCal</text><path class="cls-4" d="M878.7,483.76c-.36.47-.22,1.56.76,1.4l.78-1.81Z"/><path class="cls-4" d="M884.93,487.63a6.17,6.17,0,0,0,1.73-1.59,2.63,2.63,0,0,0,.44-2.34,5.13,5.13,0,0,1-1.45,1.28,5.09,5.09,0,0,0-1.5,1.56,1.2,1.2,0,0,1-1.41-1.4c-.19.22-.55.08-1,0a1,1,0,0,0-1.12.58c1.17,1.47,2.69,1.69,4.46.66C885.44,486.85,885.05,487.3,884.93,487.63Z"/><path class="cls-4" d="M959.36,535.84l-.14-.61A1.26,1.26,0,0,0,959.36,535.84Z"/><path class="cls-4" d="M974.59,588.57c-.06-.42-.25-.59-.42-.61C974.31,588.35,974.44,588.67,974.59,588.57Z"/><path class="cls-4" d="M972.38,597.9c.07-.2.1-.36.15-.54C972.35,597.56,972.25,597.76,972.38,597.9Z"/><path class="cls-4" d="M959.36,535.84l.17.77.15.79C960.25,537.16,959.66,536.51,959.36,535.84Z"/><path class="cls-4" d="M898.56,485.44a2.14,2.14,0,0,0-1,.28,5.91,5.91,0,0,1,.84,0A2.21,2.21,0,0,1,898.56,485.44Z"/><path class="cls-4" d="M942.36,518.29,942,518a3.94,3.94,0,0,0-.78.31h1.11Z"/><path class="cls-4" d="M927.37,507.26c.32.28,1.28-1,1.79-1.45a1.61,1.61,0,0,1-1.36.41A3.57,3.57,0,0,0,927.37,507.26Z"/><path class="cls-4" d="M901.25,492.68l-.29,0-.29,0C900.83,492.72,901.07,492.71,901.25,492.68Z"/><path class="cls-4" d="M951.32,528.13a1.44,1.44,0,0,0-.32.49A1.16,1.16,0,0,0,951.32,528.13Z"/><path class="cls-4" d="M869.12,494.54a2.16,2.16,0,0,0,0,.28C869.25,494.66,869.27,494.54,869.12,494.54Z"/><path class="cls-4" d="M892.14,501l-.31.1a8.72,8.72,0,0,0,0,.88Z"/><path class="cls-4" d="M967.93,614.2a.25.25,0,0,0,0-.07C967.9,613.67,967.88,613.91,967.93,614.2Z"/><path class="cls-4" d="M845.37,667.08c.69.9-.12,1.17-.84,1.45s-1.34.64-.22,1.75c0-.33.71-.76,1.23-1.31S846.34,667.8,845.37,667.08Z"/><path class="cls-4" d="M899,485.75a4.75,4.75,0,0,1,.81.19A1.71,1.71,0,0,0,899,485.75Z"/><path class="cls-4" d="M844.31,670.28h0l.24.21Z"/><path class="cls-4" d="M952.76,649a1.74,1.74,0,0,0,.77.11A1.27,1.27,0,0,0,952.76,649Z"/><path class="cls-4" d="M968.21,624.59l-.43.62A1.79,1.79,0,0,0,968.21,624.59Z"/><path class="cls-4" d="M944.22,661.2c-.37.15-.61.06-.89.55a1.11,1.11,0,0,0,.25,0C943.59,661.51,943.72,661.28,944.22,661.2Z"/><path class="cls-4" d="M931.25,669.27a2.76,2.76,0,0,0,.39.18l.42-.27Z"/><path class="cls-4" d="M818,504.83a4.72,4.72,0,0,1,1.22,1.07C818.6,504.94,820.9,503.75,818,504.83Z"/><path class="cls-4" d="M898.36,486.3c.19-.37.38-.52.66-.55-.2,0-.39,0-.58,0A.71.71,0,0,0,898.36,486.3Z"/><path class="cls-4" d="M951.57,671.16l-1.23.84c-.31.2-.62.42-.86.56l-.39.25A14,14,0,0,0,951.57,671.16Z"/><path class="cls-4" d="M758,604.2l-.35-.58A.71.71,0,0,0,758,604.2Z"/><path class="cls-4" d="M941.77,677.84a4.49,4.49,0,0,0-2-.15,1.52,1.52,0,0,0-.12.53Z"/><path class="cls-4" d="M819.23,505.92a0,0,0,0,1,0,0A0,0,0,0,0,819.23,505.92Z"/><path class="cls-4" d="M835.79,497.5c-2.6.54-.77,2.25-1.06,3.52-2.89,1.27-1.75-1.15-3-1.94a5.89,5.89,0,0,0-.64.42c-.2.16-.39.33-.58.51-.36.36-.7.74-1,1.1a4.09,4.09,0,0,1-2,1.48c-.19-.3-.5-.34-.29-.84a4.29,4.29,0,0,1-1.6,1.22,19.67,19.67,0,0,1-2.13.82c-.38.13-.75.26-1.11.41a8.59,8.59,0,0,0-1,.53,4.65,4.65,0,0,0-1.64,1.57,1.14,1.14,0,0,1-.46-.38,6.45,6.45,0,0,1,1.26,2.56,5.33,5.33,0,0,0-1.31.95c-.36.3-.7.4-1.13-.16.67-.2.54-.74.72-1.24l-.47.48-.47.48c-1.7-1.44,1.33-1.2.86-2.53a16.19,16.19,0,0,0-1.54,1.18l-1.5,1.29a11.68,11.68,0,0,1-1.47,1.06,3.47,3.47,0,0,1-1.42.52c-.54-.8.39-1.35,1.09-1.79s1.2-.72-.26-1.05l1.46-.18c.73-.1,1.46-.17,1.46-.17-3.1-2,1.72-.4-1.29-2.71a9.26,9.26,0,0,0-3.71,1.68,10.37,10.37,0,0,1-3.64,1.79c-.34,1.32.89,1.3.56,2.61A4,4,0,0,1,805.8,512a3.33,3.33,0,0,1-1.1-.17,9.92,9.92,0,0,1-1-.4c-1.28-.59-2.42-1.19-3.58.88-.16.8,0,1.77-.23,2.58s-.75,1.42-2.26,1.6l-.14-1.17-.13-1.17a2.9,2.9,0,0,0-1.83,2.61,1.91,1.91,0,0,1-.48,1.11,2.57,2.57,0,0,1-.69.45,5.77,5.77,0,0,1-1.19.38,2.81,2.81,0,0,1,1-1.48c.43-.39.76-.64.46-.6-1.52,0-1.73.47-1.75,1.1s.13,1.4-.66,1.93l-1.4-1.34a25.54,25.54,0,0,0-2.25,2.08c-.36.38-.73.76-1.08,1.16l-1.07,1.21-1,1.24-1.06,1.25c-.7.84-1.43,1.64-2.17,2.44-.2-.58,0-1.53-1.19-1.27a49.6,49.6,0,0,1-6.12,6.19c-2.23,2-4.55,3.9-6.64,5.79l0,1.33c0,.33,0,.66,0,.91l0,.41c-.29.39-1.12.33-1.08-.29-1.73,1.41.79.68.75,1.88-.56,1.05-1.66.82-1.65-.1a67.36,67.36,0,0,1-2.11,7.13c-.94,2.51-2,4.92-3.57,6.43l-.09-.46-.07-.44a2.62,2.62,0,0,0-.48,1.84,6.39,6.39,0,0,0,.48,1.63,5.56,5.56,0,0,1,.26.75,2.46,2.46,0,0,1,.13.75,2.14,2.14,0,0,1-.77,1.56l-.12-.6a28.29,28.29,0,0,0-1.55,4.77c-.34,1.65-.69,3.3-.92,4.91-.07.4-.14.8-.22,1.2l-.11.59-.09.58c-.14.77-.29,1.53-.48,2.26-.1.37-.2.73-.29,1.08s-.21.7-.33,1a14.35,14.35,0,0,1-.86,2A1.58,1.58,0,0,1,756,581a6.62,6.62,0,0,1,0,1.08l-.06.58c0,.2,0,.39,0,.59-.1,1.56-.11,3.08,1.56,3.19a20.4,20.4,0,0,1-.9,2.13c-.27.53-.51.93-.7,1.38a8.79,8.79,0,0,0-.52,1.69c-.08.37-.15.79-.22,1.29s-.09,1.09-.13,1.77.63,1.18,1.28,1.64a4.3,4.3,0,0,1,1.75,1.76l-1.68.37,1.11,1c.27.24.57.48.78.66l.36.29-.85.84-.86.85.41.75c.19.38.42.75.42.75-.09-.66.41-1.54.91-1.56a4.74,4.74,0,0,1,.4.92,5.71,5.71,0,0,1,.24,1,8.13,8.13,0,0,1,0,2.09c-.13,1.32-.51,2.43-.92,2.6l.5.84c.3.5.74,1.15,1.16,1.81l1.18,1.77.56.79c-.69.13-1.3-.72-2-1.33a6.77,6.77,0,0,1,.73.76,1,1,0,0,1,.25.48c0,.26-.15.4-.35.54-.4.28-.82.54.48,1.62.21-.52,1-.19,1.37-.26a3.94,3.94,0,0,0,0,1.53,10,10,0,0,0,.52,1.81,12.55,12.55,0,0,0,.89,1.85,18,18,0,0,0,1.08,1.68l-1.27.1c.21.53.47,1.05.73,1.56s.56,1,.85,1.54.62,1,1,1.53l1,1.52c.34.51.71,1,1.08,1.51l1.09,1.51c.74,1,1.5,2,2.2,3.07a1.41,1.41,0,0,1,2.34-1.53l-1.15,1.52c1.47.11-.32-1.62,1.92-.86.91,1.6-.93,2.22-2.05,1.69l1.84,1.47c-.35.43-.89.17-1.53.47.72.05,1,1.1,1.33,2.14a4.61,4.61,0,0,0,.71,1.42,1.51,1.51,0,0,0,1.35.55l-.33.45a38.8,38.8,0,0,0,4.27,4.4c.66.57,1.3,1.11,2,1.69l.5.44.52.45c.36.31.72.64,1.1,1a1.44,1.44,0,0,1,1.67-.27,5.29,5.29,0,0,0,2.14.42c.47.58.91,1.24,1.39,1.88s1,1.31,1.5,2l.4.5a6.27,6.27,0,0,0,.42.48c.28.32.57.63.88.94s.63.6,1,.89a12.34,12.34,0,0,0,1.06.81c2.49.86,1.38-.64,2.83-.73-.71,1.28,2.31,3.18.2,3a46.82,46.82,0,0,0,4.39,2.47c.69.33,1.43.63,2.32,1,.44.17.92.36,1.46.53l1.78.58c-.22-.8-.65-1.34-.11-1.59.94.27,1.6,1.61,1.15,2.14h-.29a8.82,8.82,0,0,1,2.25.72,11,11,0,0,1,1.06.59c.35.21.7.43,1,.67.68.48,1.34,1,2,1.58s1.32,1.13,2,1.7c2.63,2.23,5.3,4.27,8.09,3.73l-.31,0,.82,0c.49,0,1.13.09,1.78.11l2.59.11c1,.49.62.63.11.83s-1.11.42-.46,1.13a11.81,11.81,0,0,1,3.77.23,15.92,15.92,0,0,1,3,1c.93.36,1.82.75,2.78,1a8.77,8.77,0,0,0,3.13.3,5,5,0,0,0,2.85,2.54,11.06,11.06,0,0,0,2.09.62c.74.15,1.52.29,2.31.38l2.38.29c.79.1,1.56.2,2.3.35a8.68,8.68,0,0,1,3.84,1.62l-.09-1c1.32-.76,1.31.79,2.15,1.15,0-.78-1.13-1.08-.32-1.5a92.16,92.16,0,0,1,15.14,2.25c5.09,1.09,10.26,2.25,15.37,2.82,1.87.18,2.43-1.09,3.09-2.11s1.43-1.74,3.78-.57l-1.34,1.84c3.79-1.09,7.67-1.15,11.6-1.35,1-.06,2-.12,2.94-.2s2-.21,2.92-.35,1.94-.37,2.88-.61a24.08,24.08,0,0,0,2.78-1c-.37.49-.3,1-1,1.15a2.85,2.85,0,0,0,1.71.28,6.9,6.9,0,0,0,2-.54,8.85,8.85,0,0,0,.87-.45,5.73,5.73,0,0,0,.68-.51c.38-.35.59-.69.54-1,1.2-.16.5.9,1.36,1.26a2,2,0,0,0,1.36-.26,9.9,9.9,0,0,0,1.29-.85c.82-.58,1.54-1.15,2.17-.64.21.16-.32.55-.59.75a3.21,3.21,0,0,1,1.12-.64c.47-.2,1-.37,1.49-.59.93-.42,1.57-.85.8-1.39a10.12,10.12,0,0,0,4-1.56l.87-.51c.28-.16.57-.32.86-.45a5.94,5.94,0,0,1,1.81-.55,2.11,2.11,0,0,1,1-1.26,16,16,0,0,1,1.55-.77c1-.49,1.94-1,1.47-2.16.59,1.12,2,.83,3.3,0a9.94,9.94,0,0,0,1.8-1.63,5.76,5.76,0,0,0,1.07-1.76c0,1,1.77-.4,1.86.87a8.19,8.19,0,0,0,1.88-2.17c.35-.69.32-1.29-.24-1.64a4.28,4.28,0,0,0,1.59-.44,3.83,3.83,0,0,0,1.17-.88,7.25,7.25,0,0,0,.86-1.14,13.28,13.28,0,0,0,.67-1.22,6.63,6.63,0,0,1,1.34-2,2.5,2.5,0,0,1,2.34-.54c1.52-2.85,2.86-5.57,4.1-8.2s2.37-5.19,3.46-7.69c1,.7.34,2-.35,3.35s-1.38,2.54-.22,3.15a41.44,41.44,0,0,0,1.84-6.78,22.6,22.6,0,0,1,.88-3.06,15.79,15.79,0,0,1,1.56-3.14c.86-1.06.68,1.16.84,1.75.19-.64.37-1.27.57-1.88s.44-1.2.68-1.79c.47-1.17,1-2.31,1.44-3.43s.87-2.26,1.21-3.4a16,16,0,0,0,.57-3.5c.22.08.3.63.33,1.14.23-.88,1-1.9-.11-2.15l0,.94a1,1,0,0,1-1.21-.35,5.49,5.49,0,0,1-.77-1.61c-.41-1.26-.68-2.65-1.09-2.85,1.38,1.18,1.87.18,2.44-.71s1.21-1.65,2.89.06c0-.64-.38-1.49-1.16-1.55.43-.8.93-1,1.56.12a5.06,5.06,0,0,0-.5-2.83,3.25,3.25,0,0,1-.15-2.47c.54.12.63.74,1.21,1.18a11,11,0,0,1-.92-2.59,5.4,5.4,0,0,1,.27-3.07c.31.2.78,0,.65.72a10.94,10.94,0,0,0,0-3c-.06-.48-.14-1-.22-1.43s-.19-.95-.28-1.42-.17-1-.23-1.42-.08-1-.11-1.46a9.64,9.64,0,0,1,.43-3.14c2.33,1.51.87-1.51,3-1.66,0,0-.12-.63-.25-1.27l-.28-1.26-1,1a10.26,10.26,0,0,0-.58-3.1,4.56,4.56,0,0,1-.18-2.86l.87,1.61-.22-2c0-.51-.13-1-.18-1.39l-.09-.64-.34,1.16-.25.8-.12.36a1.68,1.68,0,0,0-.87-.9,2.19,2.19,0,0,0-.8-.11c-.45,0-.7-.12-.47-1.53.12.28.1-.25.2-1a4.23,4.23,0,0,1,.86-2.31h0a7.65,7.65,0,0,1-1-1.59,3.16,3.16,0,0,1-.19-2c.62-.49,2.32.08,2.73-.23a2,2,0,0,1-1-1.16,13.09,13.09,0,0,1-.53-1.79,9.42,9.42,0,0,0-.56-1.82,2.52,2.52,0,0,0-1.12-1.24,2,2,0,0,0,1.78,0l-1.54-.64c.28-1.05.47-1.24,1.36-1.24-.16-1.51-.77-1.14-1.27-.88s-.92.45-.71-1.39c.17.25.35.07.67.6a15.19,15.19,0,0,0-1.26-5,17.16,17.16,0,0,1-1.38-4.78c.86-.77,1.19-.11,1.48.54s.5,1.31,1.21.53a29.11,29.11,0,0,0-1.57-3.36c-.63-1.09-1.28-2.17-1.93-3.24s-1.3-2.12-1.87-3.18c-.29-.53-.56-1.06-.79-1.6s-.43-1.08-.62-1.63l.07.44c0,.21.06.44.06.44-1.47.28-1.49-.62-1.41-1.82a7.88,7.88,0,0,0,0-1.88,2.11,2.11,0,0,0-.93-1.53c.45.41,1.8-.05,1.44-.05-1-3.07-3.61-5.48-6.92-9l1,.1a7,7,0,0,0-.54-1.53c-.26-.52-.57-1.06-.9-1.59l-1-1.58a14.25,14.25,0,0,1-.85-1.45c-1,0-1.53-1-2,.19,0-.24,0-.47,0-.69a6.12,6.12,0,0,0-.1-.64,7,7,0,0,0-.33-1.18,7.92,7.92,0,0,0-.48-1.06c-.09-.17-.19-.33-.29-.49l-.33-.45a14.61,14.61,0,0,0-3.29-2.94c-.6-.43-1.19-.84-1.77-1.27a13.26,13.26,0,0,1-1.62-1.34,6.32,6.32,0,0,1-.69-.77,5.88,5.88,0,0,1-.6-.85,6.49,6.49,0,0,1-.82-2.1c.47.46,1.58.64,1.21.26l-.6-.44-.61-.45-.72-.49-2-1.34c-.6,1.2-.08,1,0,2.39a4.28,4.28,0,0,1-3.13-1c2.11.72,1.37-1.55,1.15-2.7-.15.4-.66.53-.87.88-.08-.83-.24-1.14-.47-1.19s-.51.17-.83.39c-.65.43-1.42.87-2.18-.76l.56-.41a6.1,6.1,0,0,0-.91-.31l-1-.25a3.47,3.47,0,0,1-1.67-.88c.47-1.52,1.45.24,2.27-.68a3.35,3.35,0,0,0-1.37-.49l-.78-.09-.79-.07c-1-.12-1.9-.37-2.15-1.46.88.12,1.8.78,2.68.91a5.05,5.05,0,0,0-.74-2.2,13.66,13.66,0,0,0-1.13-1.09l.09.11-1.1-1.23-.76-.84c-.21-.24-.35-.38-.35-.38s.11.2.21.42l.21.43a4.53,4.53,0,0,1-2.48.52,4.25,4.25,0,0,1-1.76-.71,10.23,10.23,0,0,0-1.77-1,5,5,0,0,0-1.09-.27,4.14,4.14,0,0,0-1.34.06,9,9,0,0,0,1.81-.42c.3-.13.36-.28.33-.45-.07-.33-.49-.78,0-1.45-.47-.81-1.32-1.87-.78-2.11-1,.23-1.41-.32-2-.82a2.4,2.4,0,0,0-2.61-.56c.08-.26-.28-.46-.54-.72s-.44-.58,0-1.12c-2-.47,0,1.05-.44,1.59-1.77.19-3.11-1.09-4.72-2.29-.39-.3-.81-.61-1.24-.89a9.51,9.51,0,0,0-1.39-.7,6.42,6.42,0,0,0-1.55-.41,5.79,5.79,0,0,0-1.75.06,11,11,0,0,0-2.49.07,16,16,0,0,0-1.95.45c-.62.17-1.21.33-1.87.46a9.78,9.78,0,0,1-2.27.2c-.42-.57-.07-1,.4-1.25a4.32,4.32,0,0,1,1.06-.38,5.84,5.84,0,0,0-4.84-1.35c.46-.37.2-.87-.18-1.58-1.43-.18-1.37,1.72-3,.53a7,7,0,0,1,1.86-1.82c-1.77.09-3.61.79-5.39.95-.29-1,1.28-1.22,2-1.71l-1.67,0c-.6,0-1.21.08-1.78.16a3.35,3.35,0,0,0-2.53,1.22l.58.35.57.36c-.7,0-.18-1.33.38-1.52,1.85-.9,2.31.89,2.3,1.44l-1.26.15a1.76,1.76,0,0,0,1.1,1.46,3.63,3.63,0,0,0,1.9.06c1.43-.26,3.11-.76,4.3-.4l-.76,1-.76,1,1.44-.67,1-.43.45-.2c.38.73.39,2.07-.84,2.11.69.77,1.11.66,1.5.57s.75-.19,1.29.63c.1.24,0,.32-.17.37l1.8-.19c-.45.37-.2,1.65-1.09,1a3.87,3.87,0,0,0,1.85.88,7.05,7.05,0,0,0,1.7.06c1-.06,1.87-.15,2.1.88l-.28,0c2.07.34,2.32,0,2.49-.57a2.08,2.08,0,0,1,.44-.9,2.85,2.85,0,0,1,1.69-.76s.12,1.18.22,2.35.19,2.33.19,2.33l1-1.42c.37.22,1.1.69.69,1.25,1.93-.43,0-.79,1.33-1.43a3.38,3.38,0,0,0,1.4,1.25c.57.32,1.19.56,1.76.81,1.14.48,2,1.07,1.6,2.38,1.25-.81-1.33-1.8,1.06-1.59-.38,1.45.24,1.62,1.1,1.7s1.95.12,2.45,1.16c-1.25,1-2.4-.52-1.42,1.56a1.49,1.49,0,0,1,1.43-.35,2.45,2.45,0,0,1,1.05.92c.64.84,1.18,1.9,2,2.13.57-.84,1.41-.56,2.43,0,.52.3,1.06.71,1.64,1.08a11.22,11.22,0,0,0,1.84,1c-.26.23.59,1.19,1.7,2.35a34.9,34.9,0,0,1,3.1,3.64l-.27.21a2.2,2.2,0,0,1,2.53,0c.84.45,1.67,1.17,2.52,1.63a2.33,2.33,0,0,1-2.56.76L942,518a2.7,2.7,0,0,1,2.35.5l-1.37.82a8.47,8.47,0,0,0,1.47,1c.52.3,1.07.58,1.62.91a6.32,6.32,0,0,1,2.78,2.92c.58-.42.91-1.53,1.43-2.33s1.28-1.3,2.74-.41c-.49.61-1.39,1.57-2.19,1.17.27.13,1.13.3,1.25.93l-1.8-.08c.48,1.4,1.28-.19,1.91.71-.84.72-.05,1.13-.81,1.58-.26-.13-.29-1-.89-1a6.24,6.24,0,0,1,.78,1.79,3,3,0,0,1,0,1.7c.41-.48,1.13-1,1.81-.36.77.87.64,1.23.36,1.55s-.68.59-.5,1.29c.94,0,1.2,1.59,2.54.63.4.54-.16,1.1-.36,1.57a3.83,3.83,0,0,1,1.08.87c.39.4.8.86,1.16,1.25.75.78,1.43,1.24,1.78.2l-.08-.32c.06,0,.1.08.17.12h0a7.32,7.32,0,0,1,1.2,1,9,9,0,0,1,.91,1.22,12.47,12.47,0,0,1,.73,1.35c.23.46.4,1,.59,1.44.36,1,.71,1.94,1.07,2.9a11.12,11.12,0,0,0,.62,1.36c.12.22.24.43.37.64s.27.42.41.62l-.49.24a22.5,22.5,0,0,1,2.09,3,12.36,12.36,0,0,0,1,1.45,5.15,5.15,0,0,0,1.17,1.08c.26.65-.31,1.89-1,1.86.53.74.93,1.12,1.23,1.64a3.33,3.33,0,0,1,.35,1,7,7,0,0,1,.12,1.6,1.52,1.52,0,0,0-.73-.48.19.19,0,0,0-.21.1c0,.09,0,.06-.34-1.1a11.13,11.13,0,0,1,.13,1.48,6,6,0,0,0,.1,1.16,2.82,2.82,0,0,0,.45,1.06,7.22,7.22,0,0,0,1.15,1.23c-.79-.19-1.09.36-1.11,1.06a3.67,3.67,0,0,0,.61,2l.27-.9c.12-.46.25-.91.25-.91a10.34,10.34,0,0,1,.87,3.26l-2-.09a4.88,4.88,0,0,0,0,1.74,5.27,5.27,0,0,0,.43,1.53,10.63,10.63,0,0,0,.78,1.4c.27.45.57.89.85,1.33s.55.88.78,1.32a4.75,4.75,0,0,1,.45,1.33,3.27,3.27,0,0,1,0,1.39,3.06,3.06,0,0,1-.28.72,4,4,0,0,1-.5.74c.72.51.87-.14,1-.82s.32-1.38,1.16-.95a3.91,3.91,0,0,1-.06.83,5.52,5.52,0,0,1-.26.85,10.66,10.66,0,0,1-.78,1.59,8.73,8.73,0,0,0-1.13,2.09c-.37,1.49.39,2.08,1.14,2.72a4.36,4.36,0,0,1,1.05,1.09,2.23,2.23,0,0,1,.29.76,2.48,2.48,0,0,1,0,1c.65-.42,2.4-.92,3.12,1.42a2.34,2.34,0,0,1-.5,1.35,2.13,2.13,0,0,1-1,.69,1.35,1.35,0,0,1-1.77-.64c-.07-.51.13-.76.35-.75-.27-.68-.59-1.57-1.27-.7l.67.25a4.2,4.2,0,0,0-.35,1.07c-.1.42-.18.86-.28,1.25-.19.78-.44,1.33-1,1,.65,1.59,1.1.68,1.43-.51a10,10,0,0,0-.48,3.5,11.25,11.25,0,0,1-.37,3.54c.39-.42,1.19-.8,1.16-.35a12,12,0,0,0-.25,1.26,2.81,2.81,0,0,0,0,.8,1,1,0,0,0,.44.78,1.87,1.87,0,0,1,1,1.93c-1.19,1.5-2.34-.82-1.81,2.09-.88,1.62-1.78.13-2.25-.59a3.52,3.52,0,0,1,.23,1,3.36,3.36,0,0,1-.06.9,5.17,5.17,0,0,1-.6,1.59c-.27.48-.6.92-.88,1.32a4.94,4.94,0,0,0-.65,1.11l-.3-1.38a4.82,4.82,0,0,1-.06,2.09l1.43-.49c-.18.36-.3.7-.44.94a.53.53,0,0,1-.59.3c.34.48.92.44,1.51.5a1.74,1.74,0,0,1,1.61,1.14c-.44.45-.42,1.28-.54,2s-.36,1.31-1.26,1.28c.68-1.54.23-1.55-.34-1.52a1.42,1.42,0,0,1-.83-.12c-.22-.16-.34-.48-.27-1.17a2.83,2.83,0,0,1-.48,1.9c-.21.06-.32-.19-.37-.42-2.25,2.62,1.61,1.86.71,5a1.29,1.29,0,0,0-2,.76c.41-1.23,1.78-.14,2.14,1.25a2.41,2.41,0,0,0-.63,2,2.27,2.27,0,0,1,0,1.41l.76-1.08c.8.72.33,1.7.13,3.21-.76-.14-.06-1.46-.55-1.07a1.49,1.49,0,0,1,.19.75,1.37,1.37,0,0,1-.2.65,5.09,5.09,0,0,1-1,1.16c-.84.77-1.81,1.52-1.71,2.8-1,.71-1.75-.64-2.52,0a2.4,2.4,0,0,1-1.15,2.35c-.16.12-.32.24-.47.37a3,3,0,0,0-.43.44,2.82,2.82,0,0,0-.51,1.51c1.52-.07,1.3-.35,1.61,1.92,0,0,0-.06.05-.18l.13-.5c.1-.41.25-1,.39-1.49s.28-1.08.37-1.49l.15-.68.09.52c0,.32.14.75.19,1.17.11.84.23,1.69.23,1.69a6.72,6.72,0,0,0,.55-2,3.35,3.35,0,0,1,.47-1.56c.42,1.68.17,1.43,1.44,1.3a1.83,1.83,0,0,0-1.19,1,3.74,3.74,0,0,0-.33,1.41,6.43,6.43,0,0,1-.24,1.52,2.12,2.12,0,0,1-1,1.23L960.73,638a4.13,4.13,0,0,0-1.4,1.78,10.25,10.25,0,0,0-.63,2.18,16.61,16.61,0,0,1-.69,2.38,6.82,6.82,0,0,1-1.54,2.31l.6-.38.6-.39c.39.59.09,1.16-.38,1.73a5.51,5.51,0,0,0-1.25,1.85c-.81-.75-1.63-.33-2.51-.3.34.22-.1.81-.48,1.51a2,2,0,0,0,.08,2.43l-1.15.22-1.13.21a4.66,4.66,0,0,0-.76.79,3.23,3.23,0,0,0-.4.84,7.81,7.81,0,0,0-.24,1.81c-.06,1.21-.11,2.49-1.43,3.45a2.09,2.09,0,0,0-.77-1.39c-.3-.35-.45-.75,0-1.78-.75.71-1.57,1.19-1.06,1.76-.23,0-.41.16-.58.44s-.34.64-.52,1a4.39,4.39,0,0,1-.62,1,1,1,0,0,1-.89.37c0,.64.57,1.65-.43,2.31a.71.71,0,0,1-.33-.43c.33.43-1.07,1.7.51,2.06a4.73,4.73,0,0,0-1.68,0,5.87,5.87,0,0,0-1.53.46,19.67,19.67,0,0,0-2.83,1.68c-.46.31-.94.59-1.4.86a7.23,7.23,0,0,1-1.41.67,5.27,5.27,0,0,1-1.43.29,3.29,3.29,0,0,1-.7,0,3.64,3.64,0,0,1-.71-.22l-1.53.94a9.21,9.21,0,0,1-.81.45l-.83.43a26.88,26.88,0,0,1-3.24,1.4c0-.36-.15-.53.26-.54a1.73,1.73,0,0,0-1.47.48,3.17,3.17,0,0,0-.54,1.19,2.6,2.6,0,0,1-.65,1.21,2.28,2.28,0,0,1-1.79.39c-2.06-1.34,1.52-1.34.33-1.75-.33-.86-.72-1.2-1.16-1.26a1.71,1.71,0,0,0-.72.11,5.67,5.67,0,0,0-.8.33,9.23,9.23,0,0,1-1.8.75,2.35,2.35,0,0,1-1.92-.33l.5-.3a1.8,1.8,0,0,0-1.42-.08,6.85,6.85,0,0,0-1.56.71l-.86.47a8.42,8.42,0,0,1-.91.42,5.22,5.22,0,0,1-2,.45.74.74,0,0,0,0-.55,8.79,8.79,0,0,1-3.72,2.25,34.68,34.68,0,0,1-4.49,1.17c.83-1.44,1.24-.79.67-2.21-1.22.24.44,2.31-2,2.76-.82-.75-2.62-1.43-2.85-3l1.16,0,.8,0,.36,0a1.62,1.62,0,0,0-2.1-.74c-.75.23-1.51.66-2.13.48l.17-.87a6.45,6.45,0,0,0-2.13.48,12.69,12.69,0,0,0-1.52.78,5.94,5.94,0,0,1-3.87.88l.38.67c-2.21,2.09-1.72-1.29-3.9.22l-.52-2.23c-.7.23-1.94.68-3.33,1.11a21.47,21.47,0,0,1-4.19.9c1.56-1.5,4.51-2.11,6.36-3a19.07,19.07,0,0,0-2.93,0,3.88,3.88,0,0,0-2.51.85c.57-.17,1.3-.65,1.82-.27a7.82,7.82,0,0,1-3.08,1.68,9.23,9.23,0,0,1-3.78.24c.46-2.09-1.28-2.54-3.33-3a17.12,17.12,0,0,1-3.06-.76,3.33,3.33,0,0,1-2.07-1.8,10.42,10.42,0,0,1-1.83.15,11.79,11.79,0,0,1-1.79-.16,17.39,17.39,0,0,1-1.77-.38c-.59-.16-1.18-.35-1.76-.54-1.18-.39-2.37-.86-3.6-1.27-.61-.2-1.23-.41-1.88-.59s-1.3-.33-2-.47c.28.93.33,1.37.22,1.57s-.35.15-.65.1c-.6-.12-1.4-.27-1.65,1.43-1.32-.1-1.8-.28-1.85-.53l-1.65-1.5c-.41-.37-.82-.74-1.12-1l-.5-.48c-.61-1.21,1.39-.38,1.48-1.15-2.62-1-.73-1.72-2.23-3.1,0,1.28-1.43,1.39-2.8.47l1.67,2.17a2.8,2.8,0,0,1-3.32-1.61,2.91,2.91,0,0,0-3.28-1.71l1.52-.59a35.25,35.25,0,0,1-4.57-1.09c-.45-.11-.91-.2-1.37-.27a8.73,8.73,0,0,0-1.33-.11,4.75,4.75,0,0,0-2.45.58c-.17-.5-.22-1.55.68-1.41a15.84,15.84,0,0,0-3.5-1.31c-.63-.17-1.27-.32-1.92-.47l-1.91-.47A20.18,20.18,0,0,1,814.2,656a6.34,6.34,0,0,1-2.51-2l.73-.53c-.89-.23-2.13.54-2.66-.75.23-.27.74-.53.42-.78a8.16,8.16,0,0,1-1.69-.14,2.89,2.89,0,0,1-1.82-.94l1.36-.24a8,8,0,0,0-1.25-1.07,7.08,7.08,0,0,0-1.29-.75,9.14,9.14,0,0,0-1.33-.47q-.66-.2-1.35-.33a16.33,16.33,0,0,1-5.44-1.6,3.08,3.08,0,0,0,.1-3.31,13.68,13.68,0,0,0-.88-1.65c-.32-.52-.65-1-.91-1.35l.28-.22c-.46-.46-.9-.91-1.37-1.31l-.7-.57-.36-.26-.35-.27c-.47-.35-.95-.68-1.44-1-.24-.16-.49-.31-.74-.45l-.73-.46c-1-.6-2-1.15-3-1.81-.5-.32-1-.66-1.5-1s-1-.76-1.46-1.18a5,5,0,0,0-.18-1.57,9.58,9.58,0,0,0-.58-1.65c-.12-.28-.26-.56-.41-.84l-.46-.87c-.32-.59-.67-1.19-1-1.79-1.43-2.44-3-5.06-3.48-7.58,0,.86-1.74.79-2.38.11,0-.63-.77-1.17-1.25-1.65s-.66-.92.4-1.32l.14.39a2.58,2.58,0,0,0,.69-1.31,3,3,0,0,0-.1-1.35,7.94,7.94,0,0,0-.53-1.34c-.2-.45-.4-.89-.56-1.32l-2.85.81a7.31,7.31,0,0,0,.08-4.41,14.71,14.71,0,0,0-.71-2.09c-.14-.35-.3-.69-.46-1s-.29-.68-.44-1c-.3-.67-.62-1.32-.86-1.95a12.38,12.38,0,0,1-.53-1.84,5.23,5.23,0,0,1-.09-.85,3.44,3.44,0,0,1,.09-.8,2.77,2.77,0,0,1,.77-1.38,4.79,4.79,0,0,1-.6-.82c-.16-.29-.3-.59-.44-.9a7,7,0,0,0-1-1.75l1.58-.15c0-.8,0-1.49,0-2.15v-1c0-.31,0-.62,0-.94,0-.63-.07-1.29-.13-2s-.12-1.56-.24-2.52l1.15.77a1.57,1.57,0,0,0-.19-.74,2.39,2.39,0,0,0-.5-.62,9.6,9.6,0,0,0-1.55-1.09A10.5,10.5,0,0,1,766,580a1.82,1.82,0,0,1-.7-1.38l1.2-.24,1.19-.24a8.6,8.6,0,0,1,.18-1.43c.1-.48.22-.95.36-1.42l.19-.7c.07-.24.14-.47.22-.7q.24-.69.45-1.38c.07-.23.13-.46.19-.69l.08-.35.09-.35a9.4,9.4,0,0,0,.24-1.39,5.79,5.79,0,0,0,0-.72c0-.12,0-.25,0-.37s0-.24,0-.36a7,7,0,0,0-.23-1.53c.31.15,1,.44.88,1,.13-.43.4-1,.68-1.69a14.74,14.74,0,0,0,.84-2,3.37,3.37,0,0,0,.18-1.78,1.49,1.49,0,0,0-1.37-1,.84.84,0,0,0,1.08-.3,2.05,2.05,0,0,0,.28-.65,5,5,0,0,0,.19-.86c.05-.32.08-.66.1-1s0-.71.06-1.07c0-.72,0-1.44.08-2l1.24,1a18.57,18.57,0,0,1-1-2.64,5.22,5.22,0,0,1,.35-2.66c.49-.42,1.34.18.59.66a1.48,1.48,0,0,0,.66-1.75,1.89,1.89,0,0,1,.91-2l.34,1.31a6,6,0,0,0,.61-1,1.42,1.42,0,0,0,.16-.71c0-.45-.22-.89-.36-1.7a3.34,3.34,0,0,1,1.61-2,2.7,2.7,0,0,1,2.39-.35,2.61,2.61,0,0,1-.37-1.55,1.83,1.83,0,0,1,.85-1.5c.51.22.45.77.44,1a5.5,5.5,0,0,0,1.67-1.61,10.14,10.14,0,0,0,.91-1.71,6.46,6.46,0,0,1,.89-1.5,2.86,2.86,0,0,1,.64-.55,3.25,3.25,0,0,1,.91-.33,1.25,1.25,0,0,0,.93.4c-1,.92-1.9,1.79-2.55,2.38s-1,.94-1,.83c.52.48,1.2.37,1.78.47s1.05.41,1.19,1.71c.09-.5.18-1.1.32-1.75a14.92,14.92,0,0,1,.51-2,8.38,8.38,0,0,1,.85-1.81,3.33,3.33,0,0,1,1.3-1.16,1.43,1.43,0,0,1,.54.18l-.06.27a1.72,1.72,0,0,0,.87-1.06,6.43,6.43,0,0,0,1.64-.81c.47.38,1.06.11,1.63-.33s1.18-1,1.63-1.34c-1-1.2.31-1.86-1.57-2.09.21,0-.06.27-.61.78a1.42,1.42,0,0,0-.27.42l0-.15-2.09,1.8c.17-1.16.48-2.29,2-2.35a24.07,24.07,0,0,1-.26-3c2.57.79,5.66.11,6.74,1,1.15-1.31,2.78-2.47,4.16-3.76a11.7,11.7,0,0,0,1.84-2,5.83,5.83,0,0,0,1-2.44c.71-.79,1.4.23,1.93.48-.37.52-1,.79-1.06,1.3a7.64,7.64,0,0,1,1.36-1.14c.53-.38,1.11-.74,1.63-1.12,1-.77,1.86-1.57,1.66-2.61,1.34-.09,1.2.5,1.12.88s-.13.57,1.36-.27l-.17.76a7.41,7.41,0,0,0,4.5-1.15,14.79,14.79,0,0,0,1.77-1.32l1.71-1.51c.57-.5,1.16-1,1.79-1.47a10.84,10.84,0,0,1,1-.64,10.17,10.17,0,0,1,1-.51,8,8,0,0,1,5.26-.28c-.57-.12-.86-.17-1-.47a25.41,25.41,0,0,0,3.26-.37c1.07-.17,2.15-.39,3.21-.66l1.6-.41,1.61-.41,1.6-.44.81-.22.8-.2c1.08-.27,2.16-.53,3.25-.76s2.18-.37,3.27-.49c.55-.06,1.1-.1,1.65-.13s1.1,0,1.65,0a19.56,19.56,0,0,1,3.3.4c2.48.32,2.59-1,4-2.18l.7,1.63,2.34-2.18c1.73-.9,3.4,0,5.14.75s3.59,1.33,5.78-.17l-.66-1.1c1.65.11,5.17-1,5,.33.16-.21.48-1.21,1.15-.65l.1.88,4-1.72c3.17.48-.32,3.51,4.26,3.47,1.69-.42,4.75-2.78,4.08-3.34-.69,0-1.78-.47-1.87-1.35l1.54-.53c.17-2.61,1.26-5.32-2.67-7l-2.61,1.71-.93-1.22,2.26-.18c-1.34-1.13-2.11,0-3,.72a2.16,2.16,0,0,0-1.2-1.33l-2.52,2.61c-.37-1,1.08-2.07-.72-2.54-1.18,1.22,1.31,2.21-.7,3.08-1.36-1.11-1-2.1-2.49-1-.26-.65,0-1.1.63-1.43-1.31.89-3.57.56-4.17,2-1.45-1.36-4.54.7-4.59-1.76a7.24,7.24,0,0,1-3.47,2.32c1-1.56-.15-1.5-1.54-1.46s-3,.12-2.84-1.48c-.72,1.4-2.21,1.84-3.89,2.19-.84.17-1.72.3-2.57.51a7.5,7.5,0,0,0-2.36,1c.14-.23.41-.7.69-.6-1.71,0-2.31-.72-3.47-1.07.08,2.2-2.46,3.09-3.64,4.64-1.2-.87-1-1.55-.61-2.26s1-1.42.48-2.37c.19.87-.64,1.44-1.4,2s-1.44,1-1,1.7c-1.8-1-1.46-.38-2.61-2,.23,2.72-1.39.74-2.37,2.65a3,3,0,0,1-1.8-1.35.47.47,0,0,0-.48-.22,3.23,3.23,0,0,0-1.17.53c-.69-.27-.53-.77-.19-1.21a4.88,4.88,0,0,1,.55-.56Zm-53.33,30.63,0,0,.89-.91C783.14,527.37,782.9,527.65,782.46,528.13Zm-3.73,3.59c.49-.41,1-1,1.64-1.54.51.27.75.81.36,1.14,0-.23-.31-.19-.7-.06S779.16,531.6,778.73,531.72Zm14.9,1.22c-.43.63-.81.54-1.09.35a10.91,10.91,0,0,0,.88-.94c0-.06,0-.14-.06-.21A2.52,2.52,0,0,1,793.63,532.94Z"/><path class="cls-4" d="M793.4,530.51c.07-.09.08-.18.18-.28a3.61,3.61,0,0,0-.57,0l.09.55Z"/><path class="cls-4" d="M959.19,535.13l0,.1a.65.65,0,0,1,.06-.3A.75.75,0,0,1,959.19,535.13Z"/><polygon class="cls-4" points="755.88 598.58 756.27 598.49 755.84 598.1 755.88 598.58"/><path class="cls-4" d="M945.15,511.23a.83.83,0,0,0,0-.54A1,1,0,0,0,945.15,511.23Z"/><path class="cls-4" d="M935.82,503.53l-1.1-1.42A9.07,9.07,0,0,0,935.82,503.53Z"/><path class="cls-4" d="M928.35,497.87a2.49,2.49,0,0,0-.49.49v0Z"/><path class="cls-4" d="M978.34,627.4a1.57,1.57,0,0,0-.05.37C978.29,628.69,978.37,628.09,978.34,627.4Z"/><path class="cls-4" d="M980.27,583.18a7.73,7.73,0,0,1,.84,1.35C981.18,583.75,981.16,583.14,980.27,583.18Z"/><path class="cls-4" d="M951.84,671l0,0a2.52,2.52,0,0,1-.25.21Z"/><path class="cls-4" d="M981.19,586.58a2.66,2.66,0,0,0-.08-2.05A4.44,4.44,0,0,0,981.19,586.58Z"/><path class="cls-4" d="M890.3,483.7l-.44-.14a.43.43,0,0,1-.09.24Z"/><path class="cls-4" d="M889.77,483.8l-.52.11C889.48,483.94,889.68,484,889.77,483.8Z"/><path class="cls-4" d="M888.14,484.16l.55-.13.38-.09.18,0C888.88,483.85,888.44,483.75,888.14,484.16Z"/><path class="cls-4" d="M902.36,487l.29-.52A1.13,1.13,0,0,0,902.36,487Z"/><path class="cls-4" d="M906,487.9c-.82-.38-1.83-1.8-3.15-1.82l-.23.4c.4-.32,1,.21,1.59.72S905.48,488.23,906,487.9Z"/><path class="cls-4" d="M917.67,500l-1.24-.84c-.31-.21-.63-.41-.87-.56l-.4-.25c.24.76.52,1.77-.77,1.37.67.78,1,1.07,1.14,1.11s.18-.2.21-.48C915.81,499.81,916,499.08,917.67,500Z"/><path class="cls-4" d="M925.35,505.11c-1.5-.57-.43.76-.68,1C925.8,506.16,926.09,506.16,925.35,505.11Z"/><path class="cls-4" d="M967.67,554l-1.39.38C966.91,555.38,966.8,554.15,967.67,554Z"/><polygon class="cls-4" points="978.65 564.13 979.18 562.67 977.77 562.43 978.65 564.13"/><polygon class="cls-4" points="970.32 573.7 970.03 573.22 970.86 575.09 970.32 573.7"/><path class="cls-4" d="M933.1,666.88l1.1,1.42a1.23,1.23,0,0,0,0-1.34.73.73,0,0,0-.46-.38A.71.71,0,0,0,933.1,666.88Z"/><path class="cls-4" d="M887.47,675.31a1.82,1.82,0,0,0-2.71-.7C885.84,674.79,886.9,675.51,887.47,675.31Z"/><polygon class="cls-4" points="772.97 607.4 773.83 608.05 772.79 606.6 772.97 607.4"/><path class="cls-10" d="M712.3,713.19c-5.8.91-138.81,106.11-320.25,133.41L535.88,612.43Z"/><path class="cls-11" d="M380,704.27,481.5,597a115.83,115.83,0,0,1,20-14.56,58.78,58.78,0,0,1,40.25-6.69l182,34.75-83.28,56.76-89.88-21.7s-12.16-2.78-24.73,21.26l-38,60.91a58.46,58.46,0,0,0,4.42,68.4,46.94,46.94,0,0,0,10,9.08L383.71,855.3,365.47,773S354.15,732.06,380,704.27Z"/><polygon class="cls-12" points="496.87 1126.66 423.29 1251.12 255.49 1246.25 260.46 1075.06 298.93 1009.92 390.82 1064.11 496.51 1126.44 496.87 1126.66"/><polygon class="cls-13" points="496.51 1126.44 422.88 1251.11 282.79 1247.04 390.82 1064.11 496.51 1126.44"/><path class="cls-14" d="M733.5,605.88s77.58-7,79.21-3.76-56.24,62-56.24,62L738.6,639.9Z"/><path class="cls-15" d="M733.93,605.7,393.22,741.33,415.9,798,756.7,664s3.39-9.14-5-11.07c0,0,5.32-7.93-4.94-11.3,0,0,5-7.57-4.77-13.09,0,0,5-7.5-3.64-10.89C738.4,617.68,742.78,612.33,733.93,605.7Z"/><path class="cls-11" d="M567.68,788.05c7.79-5.89,36.89-31.45,52.84-61.8l33.92-61.5s12.3-20.17,36.33-17.93a16.63,16.63,0,0,1,3.27.66c6.16,1.87,27.11,9.76,33.79,31.7a17,17,0,0,1,.51,7.59c-.93,5.71-4.25,17.18-15.55,36.4L622,891.3s-24.79,41.32-49.67,64.51c-.38.36-.75.73-1.1,1.12-3.39,3.8-22.85,25.4-34.68,33.79a17,17,0,0,0-4.77,5.15l-14.74,24.75a.87.87,0,0,1-1.2.31l-132-78.13,8.61-14.55a16.92,16.92,0,0,0,2.09-11.62l-11.06-61.28,110.21-46.54c2.53-1.07,5.68-2.53,8.23-3.56C504.15,804.33,514.73,828.09,567.68,788.05Z"/><path class="cls-16" d="M356,755.84l47.77-18.77L426.1,794l-47.77,18.77c-17.21,6.77-36.33-.5-42.48-16.16h0C329.7,780.94,338.75,762.6,356,755.84Z"/><rect class="cls-17" x="362.35" y="884.94" width="123.35" height="278.18" rx="26.45" ry="26.45" transform="translate(-673.38 868.69) rotate(-59.45)"/><path class="cls-18" d="M782.43,602.91s29.54-2.73,30.13-1c.74,2.19-19.46,22.94-19.46,22.94Z"/><text class="cls-19" transform="translate(792.17 350.1) rotate(0.02) scale(1.1 0.79)">Save the date</text></svg>