<svg id="Layer_1" data-name="Layer 1" xmlns="http://www.w3.org/2000/svg" viewBox="0 0 1080 1080"><defs><style>.cls-1{fill:#c8c8c8;}.cls-2{fill:#ededed;}.cls-3{fill:#fff;}.cls-4{fill:#dc4844;}.cls-5{fill:#bf3a37;}.cls-6{fill:#ebebeb;}.cls-7{fill:#bababa;}.cls-8{fill:#e7e6e6;}.cls-9{font-size:164.52px;letter-spacing:0.2em;}.cls-19,.cls-9{font-family:ComicSansMS, Comic Sans MS;}.cls-10{fill:#dba27d;}.cls-11{fill:#f8c09d;}.cls-12{fill:#3e7b7d;}.cls-13{fill:#005757;}.cls-14{fill:#e7b26a;}.cls-15{fill:#2e79bd;}.cls-16{fill:#252a26;}.cls-17{fill:#fbf8ec;}.cls-18{fill:#282928;}.cls-19{font-size:50.17px;}</style></defs><title>Artboard 2</title><path class="cls-1" d="M989.71,807.87l-666.56,114A67.9,67.9,0,0,1,245,866.5s-65.27-674.93-5.76-685.11c0,0,700.14-69.58,710.31-10.07L1045,729.73A67.9,67.9,0,0,1,989.71,807.87Z"/><path class="cls-2" d="M951.93,831.8,278.77,896.26a67.9,67.9,0,0,1-73.84-60.94s-15.28-677.91,44.82-683.67c0,0,703.37-17.72,709.12,42.38l54,563.93A67.9,67.9,0,0,1,951.93,831.8Z"/><path class="cls-2" d="M257.8,807.63l608.8,88.63a67.9,67.9,0,0,0,73.84-60.94s15.29-677.91-44.81-683.67c0,0-602.12-15.38-607.87,44.72L224.52,711.11C221,748.18,220.74,804.08,257.8,807.63Z"/><path class="cls-3" d="M297.7,117.43H889.78A109.77,109.77,0,0,1,999.56,227.2v555a67.7,67.7,0,0,1-67.7,67.7H255.62a67.7,67.7,0,0,1-67.7-67.7v-555A109.77,109.77,0,0,1,297.7,117.43Z"/><path class="cls-4" d="M297.7,117.43H889.78A109.77,109.77,0,0,1,999.56,227.2v80.61a0,0,0,0,1,0,0H187.93a0,0,0,0,1,0,0V227.2A109.77,109.77,0,0,1,297.7,117.43Z"/><path class="cls-5" d="M320,172.82h0a16.55,16.55,0,0,1-16.51-16.51V117.43h33v38.88A16.55,16.55,0,0,1,320,172.82Z"/><path class="cls-5" d="M515.38,172.82h0a16.55,16.55,0,0,1-16.51-16.51V117.43h33v38.88A16.55,16.55,0,0,1,515.38,172.82Z"/><path class="cls-6" d="M698.12,172.82h0a16.55,16.55,0,0,1-16.51-16.51V117.43h33v38.88A16.55,16.55,0,0,1,698.12,172.82Z"/><path class="cls-5" d="M882.14,172.82h0a16.55,16.55,0,0,1-16.51-16.51V117.43c0-2.61,33,.36,33,.36v38.52A16.55,16.55,0,0,1,882.14,172.82Z"/><rect class="cls-6" x="492.36" y="91.69" width="33.02" height="75.58" rx="16.51" ry="16.51"/><rect class="cls-6" x="676.01" y="91.69" width="33.02" height="75.58" rx="16.51" ry="16.51"/><rect class="cls-6" x="859.66" y="91.69" width="33.02" height="75.58" rx="16.51" ry="16.51"/><path class="cls-7" d="M931.09,646l-192,201.86s7.26-35.54,7.31-57.87c0-14.19-2.86-26.56-3.84-46.94-2.73-57.15,30.36-71.7,46-80.16,24-13,63.26-3.38,86.95-4.92C885.53,657.32,923.62,655.66,931.09,646Z"/><path class="cls-8" d="M994.68,633.29,739.11,847.86s12.7-40.8,15.21-67c1.59-16.62-.59-31.44.44-55.42,2.9-67.25,44.75-80.53,64.68-88.66,30.57-12.46,77.33,3.26,106.33,4.16C938,641.37,984.54,643.76,994.68,633.29Z"/><rect class="cls-6" x="271.69" y="414.34" width="108.26" height="70.19"/><rect class="cls-6" x="271.69" y="539.27" width="108.26" height="70.19"/><rect class="cls-6" x="443.97" y="539.27" width="108.26" height="70.19"/><rect class="cls-6" x="616.26" y="539.27" width="108.26" height="70.19"/><rect class="cls-6" x="785.22" y="539.27" width="108.26" height="70.19"/><rect class="cls-6" x="271.69" y="664.2" width="108.26" height="70.19"/><rect class="cls-6" x="443.97" y="664.2" width="108.26" height="70.19"/><rect class="cls-6" x="616.26" y="664.2" width="108.26" height="70.19"/><rect class="cls-6" x="443.97" y="414.34" width="108.26" height="70.19"/><rect class="cls-6" x="616.26" y="414.34" width="108.26" height="70.19"/><rect class="cls-6" x="788.55" y="414.34" width="108.26" height="70.19"/><rect class="cls-6" x="296.94" y="91.69" width="33.02" height="75.58" rx="16.51" ry="16.51"/><text class="cls-9" transform="translate(298.51 287.35) scale(1.1 0.79)">IPCal</text><path class="cls-4" d="M499.9,485c-.3.39-.18,1.3.64,1.16l.65-1.49Z"/><path class="cls-4" d="M505.08,488.24a5.12,5.12,0,0,0,1.44-1.32,2.18,2.18,0,0,0,.36-1.95,4.1,4.1,0,0,1-1.2,1.06,4.36,4.36,0,0,0-1.25,1.3,1,1,0,0,1-1.17-1.16c-.15.19-.46.06-.79,0a.82.82,0,0,0-.93.47,2.59,2.59,0,0,0,3.71.55C505.5,487.59,505.18,488,505.08,488.24Z"/><path class="cls-4" d="M566.87,528.26l-.12-.5A1.15,1.15,0,0,0,566.87,528.26Z"/><path class="cls-4" d="M579.52,572c0-.35-.21-.49-.35-.5C579.29,571.86,579.39,572.12,579.52,572Z"/><path class="cls-4" d="M577.68,579.79c.06-.17.09-.3.13-.45C577.66,579.5,577.57,579.67,577.68,579.79Z"/><path class="cls-4" d="M566.87,528.26l.15.65.12.65C567.61,529.36,567.13,528.82,566.87,528.26Z"/><path class="cls-4" d="M516.39,486.42a1.65,1.65,0,0,0-.79.23c.23,0,.46,0,.69,0A2.14,2.14,0,0,1,516.39,486.42Z"/><path class="cls-4" d="M552.76,513.69l-.28-.25a5.07,5.07,0,0,0-.64.26h.92Z"/><path class="cls-4" d="M540.32,504.54c.26.23,1.06-.8,1.48-1.21a1.32,1.32,0,0,1-1.13.34A2.79,2.79,0,0,0,540.32,504.54Z"/><path class="cls-4" d="M518.63,492.43l-.24,0-.24,0C518.28,492.46,518.48,492.46,518.63,492.43Z"/><path class="cls-4" d="M560.2,521.86a1.29,1.29,0,0,0-.27.41A1,1,0,0,0,560.2,521.86Z"/><path class="cls-4" d="M492,494c0,.09,0,.15,0,.23C492.06,494.07,492.08,494,492,494Z"/><path class="cls-4" d="M511.06,499.37l-.25.08a6,6,0,0,0,0,.73Z"/><path class="cls-4" d="M574,593.32l0-.05C574,592.88,573.94,593.08,574,593.32Z"/><path class="cls-4" d="M472.24,637.23c.57.75-.11,1-.7,1.2s-1.12.53-.18,1.45c0-.28.59-.63,1-1.08S473,637.82,472.24,637.23Z"/><path class="cls-4" d="M516.78,486.68a4,4,0,0,1,.67.15A1.41,1.41,0,0,0,516.78,486.68Z"/><path class="cls-4" d="M471.36,639.88h0l.19.18Z"/><path class="cls-4" d="M561.39,622.22a1.63,1.63,0,0,0,.65.09A1,1,0,0,0,561.39,622.22Z"/><path class="cls-4" d="M574.22,602l-.36.51A1.5,1.5,0,0,0,574.22,602Z"/><path class="cls-4" d="M554.3,632.34c-.31.13-.5,0-.73.46a.48.48,0,0,0,.2,0C553.78,632.6,553.89,632.41,554.3,632.34Z"/><path class="cls-4" d="M543.54,639a1.87,1.87,0,0,0,.32.15l.34-.22Z"/><path class="cls-4" d="M449.51,502.51a3.85,3.85,0,0,1,1,.9C450,502.61,451.92,501.62,449.51,502.51Z"/><path class="cls-4" d="M516.23,487.13c.16-.3.32-.43.55-.45l-.49,0A.59.59,0,0,0,516.23,487.13Z"/><path class="cls-4" d="M560.4,640.61l-1,.7c-.26.17-.51.35-.71.47l-.33.2A11,11,0,0,0,560.4,640.61Z"/><path class="cls-4" d="M399.69,585l-.3-.49A.63.63,0,0,0,399.69,585Z"/><path class="cls-4" d="M552.27,646.16a3.57,3.57,0,0,0-1.66-.12,1.22,1.22,0,0,0-.09.43Z"/><path class="cls-4" d="M450.53,503.42h0Z"/><path class="cls-4" d="M464.28,496.43c-2.15.45-.64,1.87-.88,2.93-2.4,1.05-1.45-1-2.52-1.61a6,6,0,0,0-.53.34,6.29,6.29,0,0,0-.47.43,11.92,11.92,0,0,0-.85.91,3.46,3.46,0,0,1-1.62,1.23c-.17-.25-.42-.29-.25-.7a3.53,3.53,0,0,1-1.33,1,15.19,15.19,0,0,1-1.77.67l-.92.34a7.76,7.76,0,0,0-.86.45,3.88,3.88,0,0,0-1.37,1.3,1,1,0,0,1-.38-.32,5.22,5.22,0,0,1,1,2.13,4.5,4.5,0,0,0-1.08.79c-.3.25-.58.33-.94-.13.56-.17.45-.62.6-1l-.39.4-.39.4c-1.41-1.2,1.1-1,.71-2.1a13.55,13.55,0,0,0-1.27,1l-1.25,1.07a9.05,9.05,0,0,1-1.22.88,2.9,2.9,0,0,1-1.18.44c-.45-.67.32-1.13.91-1.49s1-.6-.22-.88l1.21-.15,1.22-.13c-2.58-1.7,1.42-.34-1.08-2.25a7.52,7.52,0,0,0-3.08,1.39,8.85,8.85,0,0,1-3,1.49c-.28,1.09.74,1.08.47,2.17a3.33,3.33,0,0,1-2.19,1.12,3,3,0,0,1-.91-.15,6.83,6.83,0,0,1-.83-.33c-1.07-.49-2-1-3,.73-.12.66,0,1.47-.18,2.14s-.63,1.18-1.88,1.33l-.12-1-.1-1a2.43,2.43,0,0,0-1.53,2.17,1.53,1.53,0,0,1-.4.92,1.93,1.93,0,0,1-.57.37,5.11,5.11,0,0,1-1,.32,2.25,2.25,0,0,1,.81-1.23c.35-.33.63-.53.38-.5-1.26,0-1.43.39-1.45.91s.1,1.16-.55,1.61l-1.16-1.11a19.93,19.93,0,0,0-1.87,1.72c-.3.32-.61.63-.9,1l-.88,1c-.3.33-.59.68-.88,1s-.58.69-.88,1c-.58.7-1.19,1.37-1.8,2-.17-.48,0-1.27-1-1a42.53,42.53,0,0,1-5.09,5.14c-1.85,1.63-3.77,3.23-5.51,4.8l0,1.11c0,.27,0,.55,0,.75l0,.35c-.24.32-.93.26-.9-.25-1.43,1.18.66.56.62,1.56-.46.88-1.37.68-1.36-.08a55,55,0,0,1-1.76,5.92,14.62,14.62,0,0,1-3,5.33l-.07-.37-.06-.37a2.2,2.2,0,0,0-.4,1.53,5.14,5.14,0,0,0,.4,1.35c.08.21.16.42.22.62a2.3,2.3,0,0,1,.1.63,1.74,1.74,0,0,1-.64,1.29l-.1-.5a23.93,23.93,0,0,0-1.29,4c-.28,1.37-.57,2.73-.76,4.07l-.18,1-.09.49-.08.49c-.11.64-.24,1.27-.4,1.87q-.12.47-.24.9t-.27.87a11.74,11.74,0,0,1-.72,1.62,1.3,1.3,0,0,1,.71,1.22,5.38,5.38,0,0,1,0,.89l-.05.48c0,.16,0,.33,0,.49-.08,1.3-.09,2.56,1.3,2.65a15.65,15.65,0,0,1-.75,1.77c-.22.44-.42.77-.58,1.15a7.14,7.14,0,0,0-.43,1.4,9.85,9.85,0,0,0-.18,1.07c-.05.42-.08.9-.11,1.47s.52,1,1.06,1.36a3.52,3.52,0,0,1,1.45,1.46l-1.39.31.92.82.65.54.3.25-.71.7-.71.71.34.62c.16.31.34.61.34.61-.06-.54.35-1.27.76-1.29a3.51,3.51,0,0,1,.33.77,4.68,4.68,0,0,1,.2.84,6.68,6.68,0,0,1,0,1.73c-.1,1.1-.42,2-.76,2.16l.42.7c.24.41.61.95,1,1.5l1,1.47.46.66c-.57.1-1.08-.6-1.64-1.11a4.8,4.8,0,0,1,.61.63.91.91,0,0,1,.21.4c0,.21-.13.33-.29.45-.33.23-.68.45.4,1.34.18-.43.85-.15,1.14-.21a3.18,3.18,0,0,0,0,1.27,9.86,9.86,0,0,0,.43,1.5,10.85,10.85,0,0,0,.74,1.54c.29.49.59,1,.9,1.39l-1.05.09a12.52,12.52,0,0,0,.61,1.29c.22.43.45.85.7,1.28s.51.85.79,1.27l.85,1.26c.28.42.59.84.89,1.25L409,608c.61.84,1.24,1.67,1.82,2.55a1.17,1.17,0,0,1,2-1.27l-1,1.26c1.22.09-.27-1.35,1.6-.72.74,1.33-.78,1.85-1.71,1.4l1.53,1.22c-.29.36-.74.15-1.27.39.59.05.8.92,1.1,1.79a3.75,3.75,0,0,0,.6,1.18,1.25,1.25,0,0,0,1.12.45l-.28.37a31.37,31.37,0,0,0,3.54,3.65l1.63,1.41.41.37.44.37c.29.26.6.53.91.82a1.21,1.21,0,0,1,1.39-.23,4,4,0,0,0,1.77.35c.39.49.76,1,1.16,1.57s.81,1.09,1.24,1.64l.33.42.35.4c.24.26.48.52.74.77s.52.51.79.74a9.29,9.29,0,0,0,.88.67c2.07.72,1.15-.53,2.35-.6-.59,1.06,1.92,2.64.17,2.47a36.83,36.83,0,0,0,3.65,2.06c.57.27,1.18.51,1.92.8.37.14.76.3,1.21.44l1.48.48c-.18-.66-.54-1.11-.1-1.32.79.23,1.34,1.33,1,1.78h-.24a6.81,6.81,0,0,1,1.87.6,7.5,7.5,0,0,1,.88.48c.29.18.58.36.86.56.57.4,1.12.86,1.67,1.32s1.1.93,1.64,1.4c2.18,1.86,4.4,3.55,6.71,3.1l-.25,0,.68.05c.4,0,.94.07,1.48.09l2.14.09c.86.41.52.52.1.69s-.93.35-.38.93a10,10,0,0,1,3.13.2,13.4,13.4,0,0,1,2.46.82,24.57,24.57,0,0,0,2.31.84,7.05,7.05,0,0,0,2.6.25,4.14,4.14,0,0,0,2.37,2.12,10,10,0,0,0,1.73.51,19.23,19.23,0,0,0,1.92.31l2,.24c.66.09,1.3.17,1.91.3a7.2,7.2,0,0,1,3.19,1.34l-.08-.85c1.1-.63,1.1.66,1.79,1,0-.65-.94-.89-.27-1.24a75.84,75.84,0,0,1,12.58,1.86c4.23.9,8.51,1.87,12.76,2.34,1.55.15,2-.9,2.56-1.75s1.19-1.45,3.14-.47l-1.11,1.53a42,42,0,0,1,9.63-1.13l2.44-.16c.81-.08,1.62-.17,2.43-.29s1.6-.31,2.39-.51a21.07,21.07,0,0,0,2.31-.81c-.32.4-.25.86-.87,1a2.41,2.41,0,0,0,1.42.24,5.69,5.69,0,0,0,1.63-.46,5.41,5.41,0,0,0,.72-.37,5.63,5.63,0,0,0,.57-.42c.31-.29.49-.58.44-.8,1-.13.42.75,1.13,1.05a1.65,1.65,0,0,0,1.13-.22,8.19,8.19,0,0,0,1.07-.7c.69-.49,1.28-1,1.8-.54.18.13-.26.47-.48.63a2.65,2.65,0,0,1,.92-.54c.4-.16.85-.3,1.24-.48.78-.35,1.3-.71.67-1.16a8.31,8.31,0,0,0,3.29-1.29c.25-.13.49-.28.73-.42a6.94,6.94,0,0,1,.71-.38,5,5,0,0,1,1.5-.45,1.72,1.72,0,0,1,.83-1,12.9,12.9,0,0,1,1.29-.64c.86-.41,1.6-.83,1.22-1.79.49.93,1.63.68,2.74,0a8,8,0,0,0,1.49-1.35,4.81,4.81,0,0,0,.89-1.46c0,.82,1.47-.34,1.55.72a6.52,6.52,0,0,0,1.55-1.81c.3-.56.27-1.07-.2-1.35a3.71,3.71,0,0,0,1.32-.37,3.3,3.3,0,0,0,1-.73,6,6,0,0,0,.71-.95,11.17,11.17,0,0,0,.56-1,5.51,5.51,0,0,1,1.11-1.7,2.07,2.07,0,0,1,1.94-.44c1.26-2.36,2.38-4.62,3.41-6.81s2-4.31,2.87-6.38c.86.58.28,1.7-.29,2.78s-1.15,2.1-.19,2.61a33.33,33.33,0,0,0,1.53-5.63,19.79,19.79,0,0,1,.74-2.54A13.13,13.13,0,0,1,578,613.5c.72-.88.57,1,.7,1.46.15-.53.3-1.06.47-1.56s.37-1,.57-1.49c.39-1,.78-1.92,1.19-2.85s.72-1.87,1-2.82a13.59,13.59,0,0,0,.47-2.91c.18.07.25.53.27.95.2-.73.85-1.58-.09-1.78l0,.77a.79.79,0,0,1-1-.28,4.78,4.78,0,0,1-.64-1.34c-.34-1-.56-2.2-.9-2.36,1.14,1,1.54.14,2-.6s1-1.37,2.4,0c0-.53-.31-1.24-1-1.28.35-.67.77-.81,1.29.1a4.15,4.15,0,0,0-.41-2.35,2.72,2.72,0,0,1-.13-2.05c.45.1.53.61,1,1a9.75,9.75,0,0,1-.76-2.14,4.45,4.45,0,0,1,.23-2.55c.25.17.65,0,.54.59a9.56,9.56,0,0,0,0-2.51c-.06-.4-.12-.8-.19-1.19s-.16-.79-.23-1.18-.14-.78-.19-1.18-.07-.8-.09-1.21a7.88,7.88,0,0,1,.35-2.6c1.94,1.25.73-1.26,2.46-1.38l-.2-1.06-.24-1.05-.85.81a8.55,8.55,0,0,0-.49-2.58,3.85,3.85,0,0,1-.15-2.36l.73,1.33-.18-1.69c0-.43-.11-.85-.15-1.16l-.08-.53-.28,1c-.08.24-.15.48-.21.66l-.1.3a1.38,1.38,0,0,0-.72-.75,1.68,1.68,0,0,0-.67-.09c-.37,0-.58-.1-.39-1.28.1.24.09-.2.17-.82a3.5,3.5,0,0,1,.71-1.92,0,0,0,0,0,0,0,6.46,6.46,0,0,1-.82-1.32,2.68,2.68,0,0,1-.16-1.69c.52-.4,1.93.07,2.27-.19a1.71,1.71,0,0,1-.8-1,9.26,9.26,0,0,1-.43-1.48,8.86,8.86,0,0,0-.47-1.51,2.13,2.13,0,0,0-.93-1,1.67,1.67,0,0,0,1.48,0l-1.28-.53c.23-.87.39-1,1.12-1-.12-1.26-.63-1-1.05-.73s-.77.37-.59-1.16c.14.21.29.06.56.5a13,13,0,0,0-1-4.19,14.2,14.2,0,0,1-1.16-4c.72-.63,1-.09,1.23.45s.42,1.09,1,.44a22.53,22.53,0,0,0-1.3-2.78c-.52-.91-1.07-1.81-1.61-2.7s-1.07-1.76-1.55-2.64q-.36-.66-.66-1.32c-.19-.45-.35-.91-.51-1.36l.06.36c0,.18,0,.37,0,.37-1.22.23-1.24-.51-1.17-1.51a6.78,6.78,0,0,0,0-1.56,1.78,1.78,0,0,0-.77-1.27c.37.34,1.49,0,1.19,0-.8-2.55-3-4.56-5.74-7.46l.79.08a6.47,6.47,0,0,0-.45-1.27c-.22-.44-.48-.88-.75-1.32l-.81-1.31a12,12,0,0,1-.7-1.21c-.8,0-1.27-.86-1.67.16,0-.2,0-.39,0-.58a4.51,4.51,0,0,0-.09-.53,6.14,6.14,0,0,0-.27-1,6.39,6.39,0,0,0-.4-.88l-.24-.4-.28-.38a12.14,12.14,0,0,0-2.72-2.44l-1.47-1.05a12.27,12.27,0,0,1-1.35-1.11,5.79,5.79,0,0,1-.57-.64A5.7,5.7,0,0,1,559,511c.39.38,1.31.53,1,.22l-.49-.37-.51-.37-.6-.41-1.62-1.12c-.5,1-.06.83,0,2a3.56,3.56,0,0,1-2.6-.85c1.75.6,1.14-1.28,1-2.23-.13.33-.56.43-.73.72-.06-.69-.2-.95-.39-1s-.42.15-.69.33c-.53.35-1.17.72-1.81-.63l.47-.35a6.75,6.75,0,0,0-.76-.25c-.26-.08-.53-.13-.78-.21a2.84,2.84,0,0,1-1.39-.73c.39-1.26,1.2.2,1.89-.56a2.82,2.82,0,0,0-1.15-.41l-.64-.08c-.23,0-.45,0-.66-.06-.85-.09-1.57-.3-1.78-1.21.73.1,1.49.65,2.23.76a4.29,4.29,0,0,0-.62-1.83,12.31,12.31,0,0,0-.94-.9l.08.09-.92-1-.63-.7-.29-.32.17.35.18.36a3.92,3.92,0,0,1-2.06.44,3.48,3.48,0,0,1-1.46-.6,8.53,8.53,0,0,0-1.47-.79A3.46,3.46,0,0,0,540,499a3.56,3.56,0,0,0-1.11.05,8,8,0,0,0,1.5-.34c.26-.12.3-.24.27-.38s-.4-.64,0-1.2c-.39-.68-1.09-1.55-.64-1.76-.83.19-1.18-.26-1.63-.68a2,2,0,0,0-2.16-.46c.06-.22-.23-.38-.45-.6s-.37-.48,0-.93c-1.65-.39,0,.87-.37,1.32-1.47.16-2.58-.91-3.91-1.9-.33-.25-.68-.51-1-.74a7.28,7.28,0,0,0-1.15-.58,5.36,5.36,0,0,0-1.28-.34,4.82,4.82,0,0,0-1.46,0,8.59,8.59,0,0,0-2.07.06A13.83,13.83,0,0,0,523,491c-.51.15-1,.28-1.55.39a8.29,8.29,0,0,1-1.88.16c-.35-.48-.06-.82.33-1a3.5,3.5,0,0,1,.88-.32,4.92,4.92,0,0,0-4-1.12c.38-.3.17-.71-.15-1.31-1.19-.14-1.14,1.43-2.51.44a5.89,5.89,0,0,1,1.55-1.51c-1.47.07-3,.66-4.47.79-.25-.85,1.06-1,1.66-1.42l-1.39,0a14.53,14.53,0,0,0-1.48.13,2.78,2.78,0,0,0-2.1,1s.25.13.48.28l.48.3c-.58,0-.15-1.1.32-1.26,1.53-.75,1.92.74,1.91,1.2l-1.05.12a1.49,1.49,0,0,0,.91,1.22,3.07,3.07,0,0,0,1.58,0c1.19-.21,2.59-.62,3.57-.33,0,0-.32.42-.63.85l-.63.84,1.19-.55.83-.36.37-.16c.31.6.33,1.71-.7,1.74.58.65.92.56,1.25.48s.62-.16,1.07.52c.08.2,0,.27-.14.31l1.49-.16c-.37.31-.16,1.37-.9.86a3,3,0,0,0,1.54.73,5.67,5.67,0,0,0,1.41.06c.86-.05,1.54-.13,1.74.73l-.24,0c1.72.28,1.93,0,2.08-.48a1.69,1.69,0,0,1,.36-.74,2.36,2.36,0,0,1,1.4-.63s.1,1,.19,2,.15,1.94.15,1.94l.85-1.18c.32.18.92.57.58,1,1.6-.36,0-.66,1.11-1.18a2.85,2.85,0,0,0,1.16,1,15.66,15.66,0,0,0,1.46.66c.94.41,1.66.89,1.32,2,1-.67-1.09-1.49.89-1.32-.32,1.2.2,1.35.91,1.42s1.62.09,2,.95c-1,.86-2-.43-1.18,1.3a1.21,1.21,0,0,1,1.18-.29,2.22,2.22,0,0,1,.88.76c.52.7,1,1.58,1.62,1.77.47-.7,1.17-.46,2,0,.43.24.87.58,1.36.89a9,9,0,0,0,1.53.82c-.22.19.49,1,1.41,1.94a28.28,28.28,0,0,1,2.57,3l-.22.18a1.82,1.82,0,0,1,2.1-.05c.7.38,1.39,1,2.09,1.35a1.92,1.92,0,0,1-2.12.64l1.07.93a2.24,2.24,0,0,1,1.95.42l-1.13.68a7.56,7.56,0,0,0,1.22.8c.43.24.89.48,1.35.75a5.24,5.24,0,0,1,2.3,2.43c.48-.35.75-1.27,1.19-1.94s1.07-1.08,2.28-.34c-.41.51-1.16,1.31-1.82,1,.22.11.94.25,1,.78l-1.5-.07c.4,1.16,1.06-.16,1.59.59-.7.59-.05.94-.68,1.31-.22-.11-.24-.83-.73-.85a5.79,5.79,0,0,1,.65,1.48,2.59,2.59,0,0,1,0,1.41c.34-.4.94-.79,1.5-.29.64.71.53,1,.3,1.28s-.57.49-.42,1.07c.78,0,1,1.32,2.11.52.34.45-.13.92-.3,1.31a3.14,3.14,0,0,1,.9.72c.32.33.67.71,1,1,.61.65,1.18,1,1.47.16l-.06-.26c.05,0,.08.07.14.1h0a5.32,5.32,0,0,1,1,.83,6.84,6.84,0,0,1,.76,1c.22.36.42.74.61,1.12a11.54,11.54,0,0,1,.48,1.2l.89,2.4a9.74,9.74,0,0,0,.52,1.14c.09.18.2.35.31.53s.22.34.34.51l-.41.2A18,18,0,0,1,573,539a10.06,10.06,0,0,0,.85,1.19,4.05,4.05,0,0,0,1,.9c.22.54-.25,1.57-.85,1.55.44.61.77.92,1,1.36a2.64,2.64,0,0,1,.29.8,5.94,5.94,0,0,1,.1,1.32,1.19,1.19,0,0,0-.6-.39.15.15,0,0,0-.18.08c0,.08,0,.05-.28-.91.07.48.09.87.11,1.23a6.82,6.82,0,0,0,.07,1,2.25,2.25,0,0,0,.38.88,6.12,6.12,0,0,0,1,1c-.66-.16-.91.3-.92.87a3,3,0,0,0,.5,1.67s.12-.37.22-.74l.21-.76a8.16,8.16,0,0,1,.72,2.71l-1.61-.08a4,4,0,0,0,0,1.45,4.88,4.88,0,0,0,.36,1.27,8.16,8.16,0,0,0,.64,1.16c.23.38.48.75.71,1.11a12.51,12.51,0,0,1,.65,1.09,4.29,4.29,0,0,1,.38,1.11,2.64,2.64,0,0,1,0,1.15,2.47,2.47,0,0,1-.23.6,4.14,4.14,0,0,1-.41.62c.6.42.72-.12.85-.68s.27-1.15,1-.79a2.76,2.76,0,0,1-.06.69,5,5,0,0,1-.21.7,8.52,8.52,0,0,1-.65,1.32c-.46.82-1,1.47-.94,1.74a2,2,0,0,0,.95,2.25,3.91,3.91,0,0,1,.87.9,1.89,1.89,0,0,1,.24.64,2.17,2.17,0,0,1,0,.84c.53-.35,2-.76,2.58,1.18a2,2,0,0,1-.41,1.12,1.8,1.8,0,0,1-.82.57,1.12,1.12,0,0,1-1.47-.53c-.06-.42.1-.63.29-.62-.22-.57-.49-1.31-1-.59l.55.21a3.58,3.58,0,0,0-.29.89c-.08.35-.15.71-.23,1-.16.65-.37,1.11-.82.83.54,1.32.91.57,1.18-.43a8.42,8.42,0,0,0-.4,2.91,9.34,9.34,0,0,1-.3,2.94c.32-.35,1-.66,1-.29a9.52,9.52,0,0,0-.21,1,2.61,2.61,0,0,0,0,.67.9.9,0,0,0,.36.65,1.55,1.55,0,0,1,.86,1.6c-1,1.25-1.94-.68-1.51,1.73-.73,1.35-1.47.12-1.86-.49a3.64,3.64,0,0,1,.19.81,3,3,0,0,1-.05.74,4.46,4.46,0,0,1-.5,1.32,12.35,12.35,0,0,1-.73,1.1,4,4,0,0,0-.54.92l-.25-1.15a4,4,0,0,1,0,1.74l1.19-.41c-.15.3-.25.58-.37.78a.43.43,0,0,1-.49.25c.29.39.76.36,1.25.41a1.46,1.46,0,0,1,1.34,1c-.36.37-.34,1.06-.44,1.66s-.3,1.08-1.05,1.06c.57-1.28.19-1.29-.28-1.27a1.13,1.13,0,0,1-.69-.1c-.19-.12-.28-.39-.23-1a2.31,2.31,0,0,1-.39,1.58c-.18.05-.27-.16-.31-.35-1.87,2.17,1.33,1.54.59,4.16a1.06,1.06,0,0,0-1.63.62c.33-1,1.47-.11,1.77,1a2,2,0,0,0-.53,1.64,1.87,1.87,0,0,1,0,1.17l.63-.9c.66.6.28,1.41.11,2.67-.63-.12-.05-1.21-.46-.89a1.13,1.13,0,0,1,0,1.16,4.11,4.11,0,0,1-.88,1c-.69.64-1.5,1.27-1.42,2.33-.85.59-1.45-.53-2.09,0a2,2,0,0,1-1,2,3.57,3.57,0,0,0-.38.3,2.53,2.53,0,0,0-.36.37,2.22,2.22,0,0,0-.42,1.25c1.26,0,1.08-.29,1.33,1.6a1.47,1.47,0,0,0,0-.16l.11-.41c.09-.34.21-.79.32-1.24s.24-.89.31-1.23l.13-.57.07.44c.05.26.11.61.16,1,.1.71.19,1.41.19,1.41a5.49,5.49,0,0,0,.46-1.64,2.66,2.66,0,0,1,.39-1.29c.34,1.4.14,1.18,1.2,1.08a1.57,1.57,0,0,0-1,.81,3.35,3.35,0,0,0-.27,1.17,6.11,6.11,0,0,1-.2,1.27,1.73,1.73,0,0,1-.84,1L568,613a3.39,3.39,0,0,0-1.16,1.48,8.89,8.89,0,0,0-.53,1.81,14.75,14.75,0,0,1-.56,2,5.7,5.7,0,0,1-1.29,1.92s.26-.15.5-.31l.5-.32c.32.48.07,1-.32,1.43a4.44,4.44,0,0,0-1,1.54c-.68-.63-1.36-.28-2.08-.25.28.17-.09.67-.4,1.25a1.65,1.65,0,0,0,.06,2l-1,.19-.94.17a2.81,2.81,0,0,0-.35.33,2.73,2.73,0,0,0-.28.33,2.66,2.66,0,0,0-.34.7,6.29,6.29,0,0,0-.19,1.5,3.26,3.26,0,0,1-1.19,2.86,1.72,1.72,0,0,0-.64-1.15c-.25-.29-.37-.63,0-1.48-.63.59-1.3,1-.88,1.46-.19,0-.34.14-.48.36a8.36,8.36,0,0,0-.43.85,3.93,3.93,0,0,1-.52.85.83.83,0,0,1-.74.3c0,.54.47,1.37-.36,1.92a.57.57,0,0,1-.27-.36c.28.36-.89,1.42.42,1.71a4,4,0,0,0-1.39,0,5.16,5.16,0,0,0-1.27.38,16.73,16.73,0,0,0-2.35,1.4c-.38.25-.78.49-1.16.71a6,6,0,0,1-1.18.56,4.5,4.5,0,0,1-1.18.24,3.77,3.77,0,0,1-.58,0,2.11,2.11,0,0,1-.59-.18c-.4.26-.83.52-1.27.78-.22.14-.45.26-.68.38l-.69.36a21.81,21.81,0,0,1-2.68,1.15c0-.29-.13-.43.21-.44a1.46,1.46,0,0,0-1.22.39,2.86,2.86,0,0,0-.45,1,2.27,2.27,0,0,1-.54,1,1.89,1.89,0,0,1-1.48.32c-1.71-1.11,1.26-1.11.27-1.45-.27-.71-.59-1-1-1a1.23,1.23,0,0,0-.59.08,6,6,0,0,0-.67.28,8.3,8.3,0,0,1-1.5.62,2,2,0,0,1-1.59-.27l.41-.25a1.51,1.51,0,0,0-1.18-.07,6.07,6.07,0,0,0-1.29.59l-.71.39a6.56,6.56,0,0,1-.76.35,4.42,4.42,0,0,1-1.66.37.59.59,0,0,0,0-.45,7.33,7.33,0,0,1-3.08,1.87,29,29,0,0,1-3.73,1c.69-1.2,1-.66.56-1.84-1,.2.36,1.92-1.7,2.29-.69-.62-2.18-1.18-2.37-2.46l1,0a6.38,6.38,0,0,0,.66,0h.3a1.34,1.34,0,0,0-1.74-.62c-.63.19-1.26.55-1.77.4l.14-.72a5.61,5.61,0,0,0-1.77.39,10.42,10.42,0,0,0-1.25.65,4.93,4.93,0,0,1-3.22.73l.31.56c-1.83,1.74-1.42-1.07-3.23.18l-.43-1.85c-.59.19-1.62.56-2.77.92a16.75,16.75,0,0,1-3.48.75c1.29-1.24,3.75-1.75,5.28-2.47a16.44,16.44,0,0,0-2.43,0,3.19,3.19,0,0,0-2.09.71c.47-.14,1.08-.55,1.51-.23a6.4,6.4,0,0,1-2.55,1.4,7.91,7.91,0,0,1-3.14.2c.38-1.74-1.06-2.11-2.76-2.45a15.09,15.09,0,0,1-2.55-.63,2.74,2.74,0,0,1-1.71-1.49,9.93,9.93,0,0,1-1.52.12,10.45,10.45,0,0,1-1.49-.14c-.49-.08-1-.18-1.47-.31s-1-.29-1.46-.45c-1-.32-2-.72-3-1.05-.51-.17-1-.35-1.56-.49s-1.08-.28-1.64-.39c.24.77.28,1.13.19,1.3s-.29.13-.54.08c-.5-.09-1.17-.22-1.37,1.19-1.1-.09-1.49-.23-1.54-.44L470,638.65l-.92-.86-.42-.4c-.51-1,1.15-.32,1.22-1-2.17-.85-.6-1.42-1.85-2.56,0,1.06-1.18,1.14-2.32.38l1.38,1.8a2.32,2.32,0,0,1-2.75-1.33,2.41,2.41,0,0,0-2.72-1.42l1.26-.49a30.44,30.44,0,0,1-3.8-.91c-.37-.09-.75-.16-1.13-.22a8.48,8.48,0,0,0-1.11-.1,4,4,0,0,0-2,.49c-.14-.42-.18-1.28.57-1.18a13.66,13.66,0,0,0-2.92-1.08q-.78-.21-1.59-.39l-1.58-.39a15.63,15.63,0,0,1-2.92-1,5.32,5.32,0,0,1-2.09-1.63l.61-.45c-.74-.18-1.77.46-2.21-.62.19-.22.62-.43.35-.65a6.22,6.22,0,0,1-1.4-.11,2.43,2.43,0,0,1-1.52-.78l1.13-.2a6.4,6.4,0,0,0-1-.89,6.09,6.09,0,0,0-1.06-.62,7.71,7.71,0,0,0-1.11-.39c-.37-.11-.74-.2-1.12-.28a13.55,13.55,0,0,1-4.52-1.33,2.55,2.55,0,0,0,.09-2.74,11.4,11.4,0,0,0-.74-1.38c-.26-.43-.53-.81-.75-1.12l.23-.17c-.38-.39-.75-.76-1.13-1.09-.2-.17-.39-.32-.59-.47l-.29-.23-.3-.22c-.39-.29-.78-.56-1.19-.81l-.61-.38-.61-.37c-.81-.5-1.67-1-2.48-1.51-.42-.27-.83-.55-1.25-.84s-.81-.63-1.21-1a4.48,4.48,0,0,0-.15-1.3,7.73,7.73,0,0,0-.48-1.37c-.1-.23-.22-.47-.34-.7l-.39-.72c-.26-.49-.55-1-.86-1.49-1.18-2-2.51-4.2-2.89-6.29,0,.72-1.44.66-2,.09,0-.52-.64-1-1-1.37s-.55-.76.33-1.09l.12.32a2.18,2.18,0,0,0,.57-1.09,2.66,2.66,0,0,0-.08-1.12,7.38,7.38,0,0,0-.45-1.11c-.16-.37-.33-.74-.46-1.1l-2.36.68a6.11,6.11,0,0,0,.06-3.66,12.29,12.29,0,0,0-.59-1.74c-.12-.29-.25-.57-.38-.85s-.24-.57-.37-.84c-.25-.56-.51-1.1-.71-1.63a10.16,10.16,0,0,1-.44-1.52,4.54,4.54,0,0,1-.08-.71,3.51,3.51,0,0,1,.08-.66,2.32,2.32,0,0,1,.64-1.15,4.1,4.1,0,0,1-.5-.68c-.13-.24-.25-.49-.36-.74a5.77,5.77,0,0,0-.84-1.46l1.31-.12c0-.66,0-1.24,0-1.79v-.79c0-.26,0-.52,0-.79,0-.52-.06-1.07-.11-1.68s-.1-1.29-.2-2.1l1,.64a1.29,1.29,0,0,0-.16-.61,2.4,2.4,0,0,0-.41-.52,8.85,8.85,0,0,0-1.29-.9,8.45,8.45,0,0,1-1.33-.93,1.47,1.47,0,0,1-.58-1.14l1-.21,1-.19a7.9,7.9,0,0,1,.15-1.19c.09-.4.19-.79.3-1.18l.16-.58.18-.58c.14-.38.26-.77.38-1.15l.15-.57.07-.29.08-.29a8.78,8.78,0,0,0,.2-1.16,5.68,5.68,0,0,0,0-.59c0-.1,0-.21,0-.31s0-.2,0-.3a6.51,6.51,0,0,0-.19-1.27c.26.13.79.36.73.87.11-.35.33-.85.56-1.4a11.17,11.17,0,0,0,.7-1.69,2.72,2.72,0,0,0,.15-1.48,1.25,1.25,0,0,0-1.13-.82.7.7,0,0,0,.89-.25,1.8,1.8,0,0,0,.24-.54,6,6,0,0,0,.15-.72,7.26,7.26,0,0,0,.08-.84l.06-.89c0-.6,0-1.2.06-1.67l1,.81a14.32,14.32,0,0,1-.82-2.19,4.3,4.3,0,0,1,.29-2.2c.4-.35,1.11.14.49.54a1.23,1.23,0,0,0,.55-1.45,1.56,1.56,0,0,1,.75-1.66l.28,1.08a4.23,4.23,0,0,0,.51-.83A1.29,1.29,0,0,0,415,538c0-.37-.19-.74-.31-1.41a2.78,2.78,0,0,1,1.34-1.63,2.23,2.23,0,0,1,2-.29,2.12,2.12,0,0,1-.31-1.29,1.53,1.53,0,0,1,.7-1.25c.43.19.38.64.37.88a4.54,4.54,0,0,0,1.38-1.34,9.47,9.47,0,0,0,.77-1.42,5,5,0,0,1,.73-1.24,2.34,2.34,0,0,1,.53-.46,2.65,2.65,0,0,1,.75-.27,1,1,0,0,0,.78.32c-.85.77-1.58,1.5-2.12,2s-.83.78-.81.69c.44.4,1,.31,1.49.39s.87.35,1,1.42c.08-.41.16-.91.27-1.45a12.89,12.89,0,0,1,.42-1.65,6.5,6.5,0,0,1,.71-1.5,2.69,2.69,0,0,1,1.08-1,1.58,1.58,0,0,1,.45.15l-.05.22a1.41,1.41,0,0,0,.72-.88,5.07,5.07,0,0,0,1.36-.67c.39.32.88.09,1.36-.27s1-.86,1.34-1.12c-.84-1,.26-1.54-1.3-1.73.18,0,0,.23-.5.65a1.17,1.17,0,0,0-.23.35.59.59,0,0,1,0-.13l-1.74,1.5c.14-1,.4-1.91,1.66-2a19.83,19.83,0,0,1-.21-2.47c2.13.66,4.69.1,5.6.86,1-1.09,2.3-2,3.45-3.12a10.53,10.53,0,0,0,1.53-1.69,4.83,4.83,0,0,0,.84-2c.59-.66,1.16.19,1.61.39-.31.43-.83.66-.89,1.08a7.52,7.52,0,0,1,1.13-1c.44-.31.93-.61,1.36-.93.86-.63,1.54-1.3,1.37-2.16,1.11-.07,1,.41.93.73s-.11.47,1.13-.22l-.14.63a6.67,6.67,0,0,0,2.06-.21,6.86,6.86,0,0,0,1.68-.74,14.06,14.06,0,0,0,1.47-1.1l1.41-1.26c.48-.42,1-.84,1.49-1.22.26-.18.53-.37.81-.53a8.72,8.72,0,0,1,.87-.42,6.59,6.59,0,0,1,4.36-.23c-.47-.1-.71-.14-.87-.4a20.25,20.25,0,0,0,2.71-.31q1.34-.21,2.67-.54l1.33-.34,1.33-.34,1.33-.37.67-.18.67-.17c.9-.22,1.79-.44,2.69-.62a25.52,25.52,0,0,1,2.72-.41c.46,0,.91-.09,1.37-.11s.91,0,1.37,0a16,16,0,0,1,2.74.33c2.06.26,2.15-.84,3.29-1.81l.58,1.35,1.95-1.81c1.44-.74,2.82,0,4.27.62s3,1.11,4.8-.14l-.55-.91c1.37.09,4.29-.82,4.13.28.13-.18.39-1,.95-.54l.09.72,3.29-1.43c2.64.41-.26,2.92,3.55,2.88,1.4-.34,3.94-2.3,3.38-2.77-.57,0-1.48-.39-1.56-1.12l1.29-.44c.14-2.16,1.05-4.41-2.22-5.77l-2.17,1.42-.77-1,1.88-.16c-1.11-.93-1.75,0-2.48.6a1.79,1.79,0,0,0-1-1.1L502,495.6c-.31-.83.9-1.73-.61-2.11-1,1,1.09,1.83-.58,2.55-1.12-.92-.85-1.74-2.06-.83a.88.88,0,0,1,.52-1.18c-1.09.73-3,.46-3.46,1.64-1.2-1.13-3.77.58-3.81-1.46a6,6,0,0,1-2.88,1.93c.84-1.3-.13-1.25-1.28-1.22s-2.48.1-2.36-1.22c-.6,1.16-1.84,1.52-3.23,1.81-.69.14-1.43.25-2.13.42a6.44,6.44,0,0,0-2,.81c.11-.19.34-.57.57-.49-1.42,0-1.92-.6-2.88-.89.07,1.83-2,2.57-3,3.85-1-.72-.83-1.29-.5-1.88s.79-1.17.39-2c.16.72-.53,1.19-1.16,1.65s-1.19.86-.8,1.41c-1.49-.83-1.21-.31-2.16-1.67.18,2.26-1.16.61-2,2.2a2.54,2.54,0,0,1-1.5-1.12.37.37,0,0,0-.4-.19,2.9,2.9,0,0,0-1,.44c-.57-.22-.44-.64-.16-1a3.33,3.33,0,0,1,.46-.46ZM420,521.86l0,0,.74-.76C420.57,521.23,420.36,521.46,420,521.86Zm-3.1,3c.4-.34.86-.8,1.36-1.27.42.22.62.66.3.94,0-.19-.26-.16-.58,0S417.27,524.75,416.91,524.84Zm12.36,1c-.35.52-.66.44-.9.29a8.85,8.85,0,0,0,.73-.79s0-.11,0-.16A1.8,1.8,0,0,1,429.27,525.86Z"/><path class="cls-4" d="M429.09,523.84a1,1,0,0,1,.14-.23,2.49,2.49,0,0,0-.47,0c0,.16.05.31.08.46Z"/><path class="cls-4" d="M566.73,527.67l0,.09a.71.71,0,0,1,.06-.25A.6.6,0,0,1,566.73,527.67Z"/><polygon class="cls-4" points="397.94 580.35 398.26 580.28 397.9 579.96 397.94 580.35"/><path class="cls-4" d="M555.08,507.84a.67.67,0,0,0,0-.46A.92.92,0,0,0,555.08,507.84Z"/><path class="cls-4" d="M547.33,501.44l-.92-1.18A8.12,8.12,0,0,0,547.33,501.44Z"/><path class="cls-4" d="M541.13,496.74a2,2,0,0,0-.41.41,0,0,0,0,0,0,0Z"/><path class="cls-4" d="M582.63,604.28a1.1,1.1,0,0,0,0,.31C582.59,605.35,582.66,604.86,582.63,604.28Z"/><path class="cls-4" d="M584.24,567.57a7,7,0,0,1,.7,1.12C585,568,585,567.53,584.24,567.57Z"/><path class="cls-4" d="M560.63,640.46v0l-.22.17Z"/><path class="cls-4" d="M585,570.39a2.2,2.2,0,0,0,0-1.7A3.62,3.62,0,0,0,585,570.39Z"/><path class="cls-4" d="M509.54,485l-.37-.11a.36.36,0,0,1-.07.2Z"/><path class="cls-4" d="M509.1,485.06l-.44.09C508.85,485.18,509,485.19,509.1,485.06Z"/><path class="cls-4" d="M507.74,485.36l.46-.11.32-.07.14,0C508.36,485.1,508,485,507.74,485.36Z"/><path class="cls-4" d="M519.55,487.71l.24-.42A.89.89,0,0,0,519.55,487.71Z"/><path class="cls-4" d="M522.6,488.46c-.68-.31-1.52-1.5-2.62-1.51l-.19.34c.33-.28.81.16,1.32.59S522.14,488.74,522.6,488.46Z"/><path class="cls-4" d="M532.26,498.53l-1-.7c-.26-.18-.52-.34-.72-.47l-.33-.21c.19.64.42,1.47-.64,1.14.55.65.81.89,1,.93s.14-.17.17-.4C530.71,498.35,530.85,497.74,532.26,498.53Z"/><path class="cls-4" d="M538.63,502.75c-1.24-.47-.35.64-.56.84C539,503.62,539.25,503.63,538.63,502.75Z"/><path class="cls-4" d="M573.77,543.31l-1.15.31C573.14,544.49,573.05,543.46,573.77,543.31Z"/><polygon class="cls-4" points="582.89 551.75 583.33 550.54 582.15 550.34 582.89 551.75"/><polygon class="cls-4" points="575.97 559.7 575.73 559.3 576.42 560.85 575.97 559.7"/><path class="cls-4" d="M545.07,637.06l.92,1.18a1,1,0,0,0,0-1.11.5.5,0,0,0-.91-.07Z"/><path class="cls-4" d="M507.18,644.06a1.5,1.5,0,0,0-2.25-.58C505.83,643.63,506.72,644.23,507.18,644.06Z"/><polygon class="cls-4" points="412.13 587.67 412.84 588.22 411.98 587.01 412.13 587.67"/><path class="cls-10" d="M358.19,674.24c-4.78.89-112.87,92.5-262.57,119.18L210.19,592.48Z"/><path class="cls-11" d="M82.89,673.24l82-92.71a96.62,96.62,0,0,1,16.27-12.72,47.84,47.84,0,0,1,33.19-6.45l151.32,25.81L297.8,636.83,223,620.24s-10.13-2.11-20.07,18.48L172.61,691c-10.64,18.36-8.79,41.74,5,57.77a38.66,38.66,0,0,0,8.44,7.49L88.89,800.93,72.2,731.65S62,697.26,82.89,673.24Z"/><polygon class="cls-12" points="187.81 1028.26 129.29 1135 -9.72 1134.18 -8.91 989.27 21.68 933.4 98.81 977.44 187.51 1028.08 187.81 1028.26"/><polygon class="cls-13" points="187.51 1028.08 128.96 1135 12.89 1134.32 98.81 977.44 187.51 1028.08"/><path class="cls-14" d="M373.68,583s64.09-7.4,65.5-4.74-45.36,53.56-45.36,53.56l-15.27-20.13Z"/><path class="cls-15" d="M374,582.89,94.57,704.33l19.87,47.48L394,631.78s2.63-7.8-4.32-9.27c0,0,4.25-6.81-4.3-9.46,0,0,4-6.5-4.21-11,0,0,4-6.44-3.22-9.14C378,592.93,381.48,588.32,374,582.89Z"/><path class="cls-11" d="M239.9,740.42c6.34-5.14,29.94-27.33,42.56-53.32l26.89-52.7s9.8-17.3,29.74-15.88a14,14,0,0,1,2.72.49c5.14,1.47,22.63,7.73,28.58,26.16a14.48,14.48,0,0,1,.57,6.41c-.66,4.85-3.18,14.61-12.17,31.09l-71.92,144S267.15,862.13,247,882.25a11.62,11.62,0,0,0-.89,1c-2.73,3.28-18.43,21.94-28.06,29.27a14.45,14.45,0,0,0-3.85,4.45l-11.72,21.23a.72.72,0,0,1-1,.28L90.65,875l6.85-12.49A14.58,14.58,0,0,0,99,852.6L88.66,801,179,759.44c2.08-1,4.66-2.25,6.75-3.18C187.62,755.44,196.84,775.33,239.9,740.42Z"/><path class="cls-16" d="M64,717.34l39.18-16.82,19.62,47.7L83.61,765.05c-14.12,6.06-30.08.29-35.48-12.83h0C42.74,739.1,49.88,723.41,64,717.34Z"/><path class="cls-17" d="M19.18,941.9,182,1035a21.73,21.73,0,0,0,29.81-8.61l28.47-52a22.7,22.7,0,0,0-8.42-30.45L69,850.81a21.72,21.72,0,0,0-29.81,8.6l-28.48,52A22.69,22.69,0,0,0,19.18,941.9Z"/><path class="cls-18" d="M414.13,579.56s24.4-2.88,24.93-1.41c.65,1.83-15.68,19.79-15.68,19.79Z"/><text class="cls-19" transform="translate(428.09 374.03) rotate(0.02) scale(1.1 0.79)">Save the date</text></svg>